<?xml version="1.0" encoding="UTF-8"?><svg id="Laag_1" xmlns="http://www.w3.org/2000/svg" viewBox="0 0 721.0251 842.6443"><defs><style>.cls-1{fill:#fff;}.cls-2,.cls-3{fill:#1d1d1b;}.cls-4{stroke-dasharray:0 0 11.7382 23.4764;}.cls-4,.cls-5,.cls-6,.cls-7,.cls-3,.cls-8,.cls-9{stroke:#1d1d1b;}.cls-4,.cls-5,.cls-6,.cls-7,.cls-8,.cls-9{fill:none;stroke-linecap:round;stroke-linejoin:bevel;stroke-width:15px;}.cls-5{stroke-dasharray:0 0 11.6167 23.2335;}.cls-6{stroke-dasharray:0 0 12.463 24.9259;}.cls-7{stroke-dasharray:0 0 11.956 23.9121;}.cls-3{stroke-miterlimit:10;}.cls-8{stroke-dasharray:0 0 13.1587 26.3174;}</style></defs><polygon class="cls-3" points="720.1511 842.1443 .874 842.1443 278.4885 369.9636 442.5366 369.9636 720.1511 842.1443"/><path class="cls-2" d="M391.6282,733.2174c-6.9707-9.6768-15.0473-18.4274-24.0435-26.075,.1232-.2731,.2427-.551,.3458-.8499,1.7507-5.0741,.7673-11.9138,.1288-17.1093-2.6287-21.3939-13.3646-40.8782-29.7505-54.6039,10.6249-9.8128,19.91-21.1025,27.3073-33.5402,3.7781-6.3525,7.1639-13.9731,2.9333-21.0286-3.1315-5.2224-9.2264-7.6372-14.8113-9.2031-8.5042-2.3843-17.1389-4.3677-25.6987-6.5436-7.5787-1.9265-18.4894-2.5839-19.6445-12.1768-.9521-7.9075,.8668-16.488,1.5714-24.3794,.8578-9.6086,1.7158-19.2173,2.5736-28.8259,.5721-6.4082-9.4313-6.3696-10,0-.8007,8.9681-1.6014,17.9361-2.402,26.9042-.7276,8.1497-2.2283,16.6174-1.8408,24.8093,.2999,6.3406,2.2426,12.2815,7.4131,16.2731,5.9977,4.6302,14.3942,5.6969,21.5519,7.5164,8.1357,2.0682,16.3953,3.8721,24.4473,6.2449,2.5247,.744,5.6178,1.5626,7.4821,3.567,2.9005,3.1182,.4021,7.2497-1.343,10.3243-7.9467,14.0013-18.6702,26.3152-30.8533,36.7762-2.6451,2.2712-1.4015,6.1322,1.012,7.8529,14.4335,10.2903,24.5968,25.8773,28.7178,43.074,.9693,4.0448,1.5925,8.1456,1.8236,12.2991,.087,1.5626,.4717,3.9113,.2752,5.7431-8.3846-6.0705-17.4327-11.2502-27.0576-15.3705-5.2057-2.2285-9.8184,3.2999-6.0591,7.8529,7.3433,8.894,17.8011,16.2576,29.1476,18.9567,1.051,.25,2.1248,.4089,3.1871,.4651,9.426,7.4819,17.8438,16.2272,24.9515,26.0942,3.7274,5.1744,12.4058,.1879,8.6347-5.0472Z"/><path class="cls-2" d="M437.2634,672.6097c-3.1254-10.6242-2.7807-21.9758-11.0004-30.438-6.1661-6.3481-14.976-9.1832-23.4381-10.8561-4.5963-.9086-9.2454-1.5108-13.8703-2.2493-4.4369-.7084-9.6597-1.2014-13.4371-3.8607-5.1897-3.6536-1.8895-8.596,.4514-13.1525,3.0947-6.0236,5.9977-12.1422,8.6735-18.3635,4.6478-10.8063,9.0179-21.9284,12.0768-33.3026,2.4035-8.937,3.7428-19.4139-.7464-27.9434-5.7607-10.9454-18.122-11.99-29.0905-13.1312-12.849-1.3368-25.6979-2.6736-38.547-4.0104,6.1376-31.6769,10.2886-63.7134,12.3697-95.9156,.4152-6.4256-9.5864-6.4005-10,0-2.1494,33.2597-6.5258,66.2988-13.1147,98.9702-.6915,3.4286,1.4537,5.9788,4.8214,6.3292,12.2456,1.274,24.4911,2.548,36.7367,3.8221,8.7811,.9136,24.1564-.2377,28.4372,9.562,3.6188,8.2844-.0632,18.6887-2.6622,26.7126-3.6615,11.3041-8.0171,22.3729-13.092,33.1175-3.9553,8.3745-12.3903,19.0208-7.9956,28.6805,3.6899,8.1105,13.0743,10.5778,21.0922,11.9079,8.5684,1.4214,17.5763,2.0974,25.7205,5.322,9.8806,3.9122,13.0816,11.601,14.8822,21.5341,2.2168,12.2296,6.9448,22.3535,13.0834,33.0841,6.4353,11.2491,13.4612,23.8963,9.789,37.2369-1.7103,6.2136,7.9343,8.8651,9.6428,2.6584,6.9708-25.3245-14.1943-43.3192-20.7825-65.7144Z"/><path class="cls-2" d="M318.6958,428.9395c-8.8554,15.3407-15.5487,31.9555-19.7235,49.1724-1.0522,4.3392-2.4401,8.998-1.7424,13.4895,.6712,4.3204,3.7647,7.4431,6.9348,10.1796,6.3541,5.485,12.9582,10.8499,20.3022,14.9655,6.9624,3.9017,14.8422,6.7443,22.9275,6.3978,2.1219-.0909,4.247-.3957,6.3133-.8839,.7633-.1803,1.7923-.6175,2.5889-.3969,.5855,.1621,.8791,.7006,1.1317,1.222,.7659,1.5806,1.0622,3.5008,1.3831,5.2137,.3709,1.9798,.5947,3.978,.7372,5.9865,.5802,8.1778-.1669,16.3769,.2185,24.5597,.396,8.4074,2.2148,16.4396,6.9015,23.5359,2.3793,3.6026,5.138,6.9518,7.2698,10.7165,1.9693,3.4778,3.3704,7.2129,4.3657,11.0783,2.0619,8.0073,2.347,16.3361,2.3177,24.5646-.0074,2.0681-.0382,4.136-.073,6.2037-.0541,3.2187,4.9458,3.2193,5,0,.278-16.5279,.0729-33.9051-9.6228-48.0644-2.3999-3.5047-5.0952-6.8285-7.0822-10.5993-1.8213-3.4564-2.8744-7.2598-3.4844-11.1059-1.2612-7.9521-.5466-16.1113-.583-24.1218-.0192-4.2326-.2393-8.4562-.8965-12.6416-.5644-3.5942-1.2305-8.381-4.5046-10.5806-2.0046-1.3467-4.3514-1.0272-6.5647-.4978-1.8609,.4451-3.7015,.7493-5.6166,.8185-3.8087,.1376-7.5382-.5095-11.1567-1.6766-7.6339-2.462-14.5284-7.0814-20.7962-11.9912-3.1991-2.5059-6.4052-5.0832-9.3687-7.8668-1.2846-1.2066-2.577-2.5426-3.2726-4.1934-.8008-1.9004-.6581-4.0967-.3156-6.0825,1.4824-8.5934,4.0898-17.1247,7.018-25.3245,2.9226-8.1841,6.4458-16.1416,10.5256-23.8146,1.0273-1.932,2.0914-3.8439,3.1853-5.7389,1.6116-2.7918-2.7074-5.3126-4.3174-2.5236h0Z"/><path class="cls-1" d="M329.4135,386.9628c1.0744,4.2175,1.9058,8.4838,2.502,12.7948l-.893-6.646c1.3909,10.4805,1.343,21.079-.0381,31.5579l.893-6.646c-1.4929,10.899-4.4083,21.5404-8.669,31.6822l2.5202-5.972c-4.0625,9.535-9.2774,18.5216-15.6093,26.7298l3.9091-5.0597c-7.5448,9.6723-16.6307,17.481-26.2258,25.0452-5.16,4.0678-10.3287,8.1472-15.0674,12.7087-6.0425,5.8166-11.1946,12.4232-16.2181,19.1203-7.8312,10.4403-14.4316,21.8834-20.3809,33.4826-6.8245,13.3055-12.9026,27.3298-16.6447,41.8411-7.4633,28.9415-5.9706,60.3813,8.574,86.9424,7.354,13.4298,18.2825,24.2755,30.9358,32.722,4.5138,3.0131,9.333,5.5489,14.3019,7.723,6.9725,3.0507,13.9869,5.8711,21.2591,8.1156,21.3707,6.5959,43.5895,9.8026,64.5939,17.678,2.5633,.9611,5.1052,1.9765,7.6283,3.0385l-5.972-2.5202c12.1629,5.1649,23.8213,11.5499,34.3071,19.6238l-5.0597-3.9091c7.0493,5.4819,13.4847,11.6986,18.9685,18.7569l-3.9091-5.0597c4.4779,5.839,8.2317,12.1658,11.1189,18.9371l-2.5202-5.972c.6077,1.4542,1.1776,2.9213,1.7109,4.4045,2.2349,6.2149,5.6391,11.5175,11.489,14.9408,5.3587,3.1358,13.2563,4.4644,19.264,2.5202,6.0492-1.9576,11.8855-5.7063,14.9408-11.489,3.0059-5.6892,4.7807-12.9778,2.5202-19.264-2.6285-7.3095-5.7509-14.587-9.7969-21.2406-3.9888-6.5596-8.7759-12.7413-13.8923-18.4532-3.886-4.3383-8.1566-8.3259-12.6913-11.9783-6.1304-4.9376-12.4212-9.6653-19.1449-13.7663-22.5457-13.7515-47.8479-21.577-73.381-27.5288-13.8817-3.2358-27.8558-6.4825-41.0306-12.0371l5.972,2.5202c-6.9739-2.9838-13.6316-6.6258-19.663-11.2447l5.0597,3.9091c-4.4633-3.4784-8.4873-7.4319-11.9752-11.891l3.9091,5.0597c-3.6471-4.7598-6.6158-9.9498-8.9694-15.4619l2.5202,5.972c-2.8261-6.7786-4.6751-13.8829-5.6836-21.1527l.893,6.646c-1.1154-8.4861-1.0627-17.0376,.0207-25.5236l-.893,6.646c1.6662-12.398,5.3492-24.3718,10.1911-35.8813l-2.5202,5.972c7.357-17.2958,16.7665-34.3367,28.2114-49.2743l-3.9091,5.0597c4.0634-5.2461,8.4857-10.189,13.3934-14.6613,5.0455-4.598,10.4746-8.7445,15.8181-12.9841,5.1234-4.065,10.1609-8.2419,14.7426-12.9188,5.3253-5.436,10.041-11.4649,14.52-17.6043,7.8806-10.802,13.6438-22.9468,18.2481-35.4664,4.6369-12.6084,7.017-25.955,8.0874-39.3205,.5119-6.3919,.5146-12.8251-.0172-19.2158-.7066-8.4904-1.9286-17.0334-4.0344-25.2993-1.5336-6.0198-6.1666-11.8262-11.489-14.9408-5.3587-3.1358-13.2563-4.4644-19.264-2.5202-6.0492,1.9576-11.8855,5.7063-14.9408,11.489-3.1799,6.0187-4.2267,12.5655-2.5202,19.264h0Z"/><path class="cls-1" d="M321.233,344.4034c-.457,3.8975-.8695,7.8093-.3992,11.726,.4723,3.9327,.7438,7.9504,2.2058,11.6631,1.4414,3.6603,3.1373,7.1811,4.6946,10.7829l-2.5202-5.972c1.0482,2.521,1.7689,5.1322,2.1636,7.8337l-.893-6.646c.0414,.299,.0785,.5986,.1111,.8987l49.107-6.646c-.4262-1.1972-.8523-2.3945-1.2785-3.5917-.7735-3.2533-2.2651-6.0873-4.4748-8.5018-1.7628-2.7216-4.1009-4.8679-7.0142-6.4389-2.8696-1.8269-5.9679-2.8158-9.295-2.9667-3.323-.7442-6.646-.5953-9.969,.4465l-5.972,2.5202c-3.7567,2.2225-6.7463,5.2121-8.9688,8.9688-3.1358,5.9351-4.377,12.6649-2.5202,19.264,.5219,1.8549,1.0438,3.7097,1.5657,5.5646,.7735,3.2533,2.2651,6.0873,4.4748,8.5018,1.7628,2.7216,4.1009,4.8679,7.0142,6.4389l5.972,2.5202c3.323,1.0419,6.646,1.1907,9.969,.4465,2.2564-.007,4.3593-.5759,6.309-1.7066,3.0994-1.0082,5.7813-2.7313,8.0457-5.1692l3.9091-5.0597c2.2615-3.8993,3.3992-8.1053,3.4132-12.618-.5022-4.736-.974-9.3574-2.697-13.791-1.714-4.4103-3.613-8.73-5.7834-12.9302-2.7008-5.2266-5.4154-10.4462-8.1232-15.6692-1.571-2.9134-3.7173-5.2515-6.4389-7.0142-2.4146-2.2097-5.2485-3.7013-8.5018-4.4748-3.323-1.0419-6.646-1.1907-9.969-.4465-3.3271,.1509-6.4254,1.1398-9.295,2.9667l-5.0597,3.9091c-3.0984,3.1193-5.2415,6.7966-6.4293,11.0317l-.893,6.646c.014,4.5127,1.1518,8.7187,3.4132,12.618,1.9148,3.6933,3.8295,7.3866,5.7443,11.0799,1.7979,3.4678,3.6888,6.9056,5.2199,10.5027l-2.5202-5.972c.9757,2.3566,1.7465,4.7695,2.122,7.2973l-.893-6.646c.041,.2967,.0758,.5942,.1042,.8924,16.369-2.2153,32.738-4.4307,49.107-6.646-.5219-1.8549-1.0438-3.7097-1.5657-5.5646l-48.214,13.292c.4262,1.1972,.8523,2.3945,1.2785,3.5917,.7735,3.2533,2.2651,6.0873,4.4748,8.5018,1.7628,2.7216,4.1009,4.8679,7.0142,6.4389l5.972,2.5202c3.323,1.0419,6.646,1.1907,9.969,.4465,2.2564-.007,4.3593-.5759,6.309-1.7066,3.0994-1.0082,5.7813-2.7313,8.0457-5.1692l3.9091-5.0597c2.2615-3.8993,3.3992-8.1053,3.4132-12.618-.5233-4.506-.9298-9.157-2.4351-13.4775-1.4681-4.2139-3.4941-8.1911-5.2588-12.2781l2.5202,5.972c-.6985-1.6836-1.1789-3.394-1.4516-5.1969l.893,6.646c-.5222-3.9868-.096-7.9819,.3696-11.952,.1298-3.442-.5879-6.6527-2.1531-9.632-1.0082-3.0994-2.7313-5.7813-5.1692-8.0457-2.2644-2.4379-4.9463-4.161-8.0457-5.1692-2.9793-1.5653-6.19-2.283-9.632-2.1531l-6.646,.893c-4.2351,1.1878-7.9123,3.3309-11.0317,6.4293l-3.9091,5.0597c-2.2615,3.8993-3.3992,8.1053-3.4132,12.618h0Z"/><g><path class="cls-9" d="M423.3433,339.8839c.3369-1.9802,.7053-3.9475,1.1042-5.9007"/><path class="cls-4" d="M430.6382,311.3502c14.7983-42.7249,44.7766-75.3349,80.2222-83.6676,58.0232-13.6404,135.9478,36.5393,153.3881,126.0748"/><path class="cls-9" d="M666.1323,365.3398c.2583,1.9697,.4879,3.9566,.6879,5.9605"/></g><g><path class="cls-9" d="M390.8049,333.1518c.0629-1.885,.1469-3.8846,.2583-5.9919"/><path class="cls-6" d="M393.3934,302.3498c4.1534-30.7066,14.4793-71.8737,40.048-113.9377,47.0105-77.3385,117.5542-111.6544,154.1884-125.3471"/><path class="cls-9" d="M599.3912,58.943c2.1694-.7096,4.0848-1.3081,5.7183-1.8064"/></g><g><path class="cls-9" d="M357.2665,325.0298c.1824-1.8901,.3586-3.8834,.5225-5.9751"/><path class="cls-5" d="M358.7861,295.8477c.2518-32.7095-4.2687-77.7775-24.6415-126.4117C298.3524,83.9928,234.3103,36.907,199.8099,16.164"/><path class="cls-9" d="M189.7494,10.3561c-1.9438-1.0762-3.7083-2.0268-5.273-2.8561"/></g><g><path class="cls-9" d="M324.6061,326.4198c-.1082-1.5429-.2682-3.5554-.5219-5.9725"/><path class="cls-7" d="M320.0423,296.8966c-5.86-24.6499-19.1674-58.7915-49.8526-87.0681-42.3426-39.019-103.0245-53.278-161.6593-39.7183"/><path class="cls-9" d="M96.9552,173.1588c-1.9132,.5661-3.8227,1.1625-5.7279,1.7891"/></g><g><path class="cls-9" d="M296.5558,332.0298c-.9935-1.6501-2.0677-3.3409-3.2275-5.0544"/><path class="cls-8" d="M275.9647,307.3002c-4.7805-4.1149-10.232-7.9367-16.4354-11.1748-34.0842-17.7919-79.0696-11.8076-118.2019,14.2894"/><path class="cls-9" d="M130.6676,318.142c-1.5656,1.2296-3.1187,2.493-4.6579,3.7897"/></g></svg>