<?xml version="1.0" encoding="UTF-8"?><svg id="Laag_1" xmlns="http://www.w3.org/2000/svg" xmlns:xlink="http://www.w3.org/1999/xlink" viewBox="0 0 211.91 121.04"><defs><style>.cls-1,.cls-2,.cls-3,.cls-4,.cls-5,.cls-6,.cls-7,.cls-8,.cls-9{fill:none;}.cls-2,.cls-3,.cls-4,.cls-5,.cls-6,.cls-7,.cls-10,.cls-8,.cls-9{stroke:#fff;}.cls-2,.cls-4{stroke-linecap:square;stroke-width:3.01px;}.cls-2,.cls-4,.cls-7{stroke-linejoin:round;}.cls-3,.cls-5,.cls-6,.cls-10,.cls-8,.cls-9{stroke-miterlimit:10;}.cls-3,.cls-7{stroke-width:7.3px;}.cls-4{stroke-dasharray:0 0 0 0 0 0 0 0 0 0 0 0;}.cls-5{stroke-width:6.02px;}.cls-11{clip-path:url(#clippath);}.cls-12,.cls-13,.cls-10{fill:#fff;}.cls-6{stroke-width:8.66px;}.cls-13{font-family:Arial-BoldMT, Arial;font-size:52.65px;font-weight:700;isolation:isolate;}.cls-8{stroke-width:5.47px;}.cls-9{stroke-width:8.04px;}</style><symbol id="PRIME_symbolen_symbool_" viewBox="0 0 1197.9 1719.76"><g id="Laag_1-2"><line class="cls-5" x1="747.3" y1="338.85" x2="911.8" y2="338.85"/><path class="cls-5" d="M877.5,337.05v66.8c-14.5-1.2-32.8,5.8-56,25.5-8.7,7.4-16.7,11.1-23.8,12.2v-104.5"/><path class="cls-3" d="M756.7,415.85s24.1,48.2,64.8,13.6,66.3-30.1,82.8-10.5"/><line class="cls-5" x1="813.2" y1="435.15" x2="813.2" y2="340.95"/><line class="cls-5" x1="828.9" y1="423.75" x2="828.9" y2="340.95"/><line class="cls-5" x1="844.5" y1="412.35" x2="844.5" y2="340.95"/><line class="cls-5" x1="860.2" y1="405.25" x2="860.2" y2="340.95"/><line class="cls-5" x1="281.5" y1="979.25" x2="591.2" y2="979.25"/><path class="cls-3" d="M292.7,1009.75s87.7,132.3,282.4,142.5"/><polygon class="cls-5" points="629.1 861.95 628.8 918.75 469.7 918.75 469.7 897.05 534 796.55 469.7 707.75 469.7 680.55 628.8 680.55 629.1 746.95 601.3 746.95 601.3 707.75 504.3 707.75 574.8 803.85 516.1 897.05 601.3 897.05 601.3 861.95 629.1 861.95"/><line class="cls-5" y1="1541.15" x2="178.5" y2="1541.15"/><path class="cls-3" d="M2.3,1696.75s101.6-50.8,142.4-175"/><path class="cls-3" d="M51.5,1525.05s37.6,89.3,109.5,114.4"/><circle class="cls-12" cx="105.1" cy="1601.05" r="13.9"/><path class="cls-3" d="M966.7,.75c-13.4,63.4-47.1,100.4-104,126.2"/><line class="cls-5" x1="878.2" y1="140.75" x2="980.2" y2="25.75"/><line class="cls-5" x1="855.9" y1="16.65" x2="997.5" y2="16.65"/><line class="cls-8" x1="942.4" y1="109.75" x2="994.6" y2="109.75"/><line class="cls-5" x1="946.8" y1="441.75" x2="1060.5" y2="441.75"/><path class="cls-6" d="M954,518.35c10.5-52.4,15.6-75.4,34.3-75.4"/><path class="cls-6" d="M1022.2,518.35c-10.5-52.4-15.6-75.4-34.3-75.4"/><polygon class="cls-12" points="842.8 626.45 845.3 627.15 844.2 630.85 841.8 630.05 842.8 626.45"/><polygon class="cls-12" points="836.96 645.52 839.44 646.3 840.96 641.43 838.48 640.65 836.96 645.52"/><polygon class="cls-12" points="839.26 638.32 841.75 639.08 843.23 634.2 840.74 633.44 839.26 638.32"/><polygon class="cls-12" points="831.6 662.05 834 662.85 832.3 667.65 829.9 666.75 831.6 662.05"/><polygon class="cls-12" points="851.3 597.75 853.8 598.55 852.3 603.35 849.8 602.65 851.3 597.75"/><path class="cls-12" d="M899.8,536.15l1.3-.3,.5,2.5-1.3,.3c-.8,.2-1.5,.3-2.4,.6l-1.2,.3-.7-2.5,1.2-.3c1-.2,1.8-.4,2.6-.6h0Z"/><path class="cls-12" d="M872.6,553.95c.5-.7,1.1-1.3,1.6-2l.8-1,2,1.7-.8,1c-.5,.6-1,1.2-1.6,1.9l-.8,1-2-1.6,.8-1h0Z"/><path class="cls-12" d="M907.2,534.85l1.3-.2,.5,2.5-1.3,.3c-.8,.2-1.6,.3-2.5,.4l-1.3,.2-.4-2.5,1.3-.2c.9-.2,1.7-.3,2.4-.5h0Z"/><path class="cls-12" d="M852.5,594.25c.3-.8,.5-1.6,.8-2.4l.4-1.2,2.4,.8-.4,1.2-.8,2.3-.4,1.2-2.5-.8,.5-1.1Z"/><path class="cls-12" d="M858.8,577.85l.5-1.2,2.4,1-.5,1.2c-.3,.7-.7,1.5-1,2.3l-.5,1.2-2.4-1,.5-1.2c.3-.8,.6-1.5,1-2.3h0Z"/><path class="cls-12" d="M860.8,573.25c.4-.8,.7-1.5,1.1-2.3l.6-1.2,2.3,1.2-.6,1.2c-.4,.7-.7,1.5-1.1,2.2l-.5,1.2-2.3-1.1,.5-1.2h0Z"/><path class="cls-12" d="M757.7,551.95c.5,.6,1.1,1.3,1.6,2l.8,1-2,1.6-.8-1c-.5-.7-1-1.3-1.5-1.9l-.8-1,2-1.7,.7,1h0Z"/><path class="cls-12" d="M769.9,571.05c.4,.7,.7,1.5,1.1,2.3l.6,1.2-2.3,1.1-.6-1.2c-.4-.8-.7-1.5-1.1-2.2l-.6-1.2,2.3-1.2,.6,1.2h0Z"/><path class="cls-12" d="M773.1,577.85c.3,.8,.7,1.5,1,2.3l.5,1.2-2.4,1-.5-1.2c-.3-.8-.6-1.5-1-2.3l-.5-1.2,2.4-1,.5,1.2h0Z"/><path class="cls-12" d="M724.6,534.85c.8,.2,1.6,.3,2.4,.4l1.3,.2-.4,2.5-1.3-.2c-.9-.1-1.7-.3-2.5-.4l-1.3-.3,.5-2.5,1.3,.3Z"/><path class="cls-12" d="M778.6,591.85c.3,.8,.5,1.6,.8,2.4l.4,1.2-2.5,.8-.4-1.2-.8-2.3-.4-1.2,2.4-.8,.5,1.1Z"/><path class="cls-12" d="M732,536.15c.8,.2,1.6,.4,2.5,.6l1.2,.3-.7,2.5-1.2-.3c-.8-.2-1.6-.4-2.4-.6l-1.3-.3,.5-2.5,1.4,.3h0Z"/><polygon class="cls-12" points="802 666.75 799.5 667.65 797.8 662.85 800.2 662.05 802 666.75"/><polygon class="cls-12" points="790.78 641.62 792.3 646.49 794.78 645.71 793.26 640.85 790.78 641.62"/><path class="cls-12" d="M808.7,682.45l.7,1.1c.4,.7,.8,1.3,1.3,1.9l.8,1-2,1.6-.8-1c-.5-.7-1-1.4-1.5-2.2l-.7-1.1,2.2-1.3Z"/><polygon class="cls-12" points="790.1 630.05 787.6 630.85 786.5 627.15 789 626.45 790.1 630.05"/><polygon class="cls-12" points="788.65 634.31 790.13 639.19 792.62 638.44 791.14 633.56 788.65 634.31"/><polygon class="cls-12" points="782 602.65 779.6 603.35 778.1 598.55 780.5 597.75 782 602.65"/><path class="cls-12" d="M892.4,528.65v9.8l.1-.1,1.2-.5,.9,2.4-1.2,.5c-.3,.1-.7,.3-1.1,.5v6.7h-10.6l-.5,.5c-.6,.5-1.2,1.1-1.8,1.7l-.9,.9-1.8-1.8,.9-.9,.3-.3h-7.1v9.3l1.6,1.1-.7,1.1c-.3,.4-.6,.8-.8,1.3v24.3h-12.2l-.3,.8c-.3,.8-.6,1.5-.9,2.3l-.5,1.2-2.4-.9,.5-1.2c.3-.7,.5-1.4,.8-2.2h-6.4v20l2.2,.6-1.4,4.9-.8-.2v2.5h.1l-.1,.3v41.9h-15.3l2.3,.8-1.6,4.8-2.4-.8,1.6-4.7h-6.1v17.2c.3-.7,.5-1.3,.8-2l.5-1.2,2.4,.9-.5,1.2c-.3,.8-.6,1.6-.9,2.3l-.5,1.2-1.8-.7v2.6l.9,.4-.5,1.2c-.1,.3-.2,.5-.3,.7v12.8h-24v-13.3l-.1-.2-.5-1.2,.6-.3v-2.6l-1.6,.6-.5-1.2c-.3-.8-.6-1.5-.9-2.3l-.5-1.2,2.4-.9,.5,1.2c.2,.5,.4,1,.6,1.4v-16.6h-6l1.6,4.7-2.4,.8-1.6-4.8,2.3-.8h-15.2v-41.9l-.1-.3h.1v-2.5l-.8,.2-1.4-4.9,2.2-.6v-20h-6.8c.3,.7,.5,1.4,.8,2.2l.5,1.2-2.4,.9-.5-1.2c-.3-.8-.6-1.6-.9-2.3l-.3-.8h-12.2v-24.2c-.3-.4-.6-.9-.8-1.3l-.7-1.1,1.6-1.1v-9.3h-7.1l.3,.3,.9,.9-1.8,1.8-.9-.9c-.6-.6-1.2-1.1-1.8-1.7l-.5-.5h-10.6v-6.7c-.3-.2-.7-.3-1.1-.5l-1.2-.5,.9-2.4,1.2,.5,.1,.1v-9.8h-22.6v-5.1h198v5.1l-22.5-.1h0Zm-9,16.7l-1-1.3,1-.8c.7-.5,1.4-1,2.1-1.4l1.1-.7,1.4,2.2-1.1,.7c-.7,.4-1.3,.9-2,1.3h4.8v-3.7l-.8-1.8,.8-.4v-10.9h-18.9v16.8h12.6Zm-15.2,37v-17.6l-.5,.9c-.4,.7-.8,1.4-1.2,2.1l-.6,1.1-2.3-1.2,.6-1.1c.4-.8,.8-1.5,1.2-2.2l.7-1.1,2.1,1.2v-2.8l-.8-.5,.7-1.1,.1-.2v-31.3h-18.8v53.8h18.8Zm-33.4,70l1.5-4.6,2.5,.8-1.2,3.8h9.3v-30.5l-.9,2.9-2.5-.7,1.4-4.9,1.9,.6v-2.5l-1.2-.4,1.2-4.2v-27.8l-.1-56.4h-18.7v123.8l6.8,.1h0Zm-22.6,36.6l.5-1.3,1.2,.5c.6,.2,1.3,.3,2,.3h.1c.7,0,1.3-.1,2-.3l1.2-.5,.5,1.3h5.6v-5l-.5,.9c-.5,.7-1,1.5-1.5,2.2l-.8,1-2-1.6,.8-1c.5-.6,.9-1.3,1.3-1.9l.7-1.1,2,1.3v-2.8l-1-.5,.6-1.2,.4-.9,.1-149.7h-18.9v126.5h0l-.1,22.7c.2,.5,.5,1.1,.7,1.6l.6,1.2-1.3,.6v8l5.8-.3h0Zm-17.9-36.6l-1.2-3.8,2.5-.8,1.5,4.6h6.9v-123.8h-19v84.3l1.2,4.1-1.2,.3v2.5l1.9-.6,1.4,4.9-2.5,.7-.8-2.8v30.4h9.3Zm-11.9-70v-53.8h-18.8v31.3l.1,.2,.7,1.1-.8,.5v2.8l2.1-1.2,.7,1.1c.4,.7,.8,1.4,1.2,2.2l.6,1.1-2.3,1.2-.6-1.1c-.4-.7-.8-1.4-1.2-2.1l-.5-.9v17.6h18.8Zm-40.4-42.8l.8,.4-.8,1.8v3.7h4.8c-.7-.5-1.3-.9-2-1.3l-1.1-.7,1.4-2.2,1.1,.7c.7,.4,1.4,.9,2.1,1.4l1,.8-1,1.3h12.5v-16.8h-18.9l.1,10.9h0Z"/><path class="cls-9" d="M935.8,865.95s24.5,43.1,30,51.6,29.6,39.3,57.5-.8c27.9-40.2,55.4-97.6,60.9-103.6s29.6-41.8,57.5-1.3c11.3,16.4,22.8,35.4,32.8,52.8"/><line class="cls-5" x1="904.5" y1="864.75" x2="1197.9" y2="864.75"/><line class="cls-5" x1="694.7" y1="721.95" x2="927" y2="721.95"/><path class="cls-3" d="M826.8,929.15c-11.8-52.9-34.9-143.5-83-186.4"/><polygon class="cls-12" points="990.9 1133.05 979.8 1133.05 979.8 1130.55 987.8 1130.55 986.5 1123.15 989 1122.75 990.9 1133.05"/><polyline class="cls-3" points="851.2 1088.45 829.2 972.75 913.7 972.75"/><polygon class="cls-12" points="834.8 1081.25 859.7 1132.85 863.9 1075.75 834.8 1081.25"/><polygon class="cls-12" points="903.6 957.95 959 972.75 903.6 987.55 903.6 957.95"/><line class="cls-3" x1="828.9" y1="972.95" x2="957.2" y2="1100.55"/><polygon class="cls-12" points="960.5 1082.95 989.3 1132.45 939.5 1103.95 960.5 1082.95"/><line class="cls-4" x1="973.9" y1="1131.85" x2="863.9" y2="1131.85"/><line class="cls-4" x1="960.5" y1="976.75" x2="986.5" y2="1116.95"/><path class="cls-4" d="M1027.1,633.15c1.5,13.2,5.5,25,10.5,36.4"/><path class="cls-4" d="M1009.5,632.95c3.7,32.6,22,56.3,35.4,87.4"/><path class="cls-4" d="M994.1,634.15c5.7,48.6,43.8,77.5,49.2,141"/><path class="cls-4" d="M977.2,633.15c5.6,48.9,44.1,77.9,49.2,142"/><path class="cls-4" d="M959,633.65c5.6,48.8,43.9,77.7,49.2,141.5"/><path class="cls-4" d="M924,634.25c5.7,48.5,43.8,77.4,49.1,140.9"/><path class="cls-4" d="M907.8,634.05c5.7,48.6,43.8,77.5,49.2,141.1"/><path class="cls-4" d="M903.9,675.65c13.3,28.8,32.8,56,36.8,99.5"/><path class="cls-4" d="M906.5,711.45c8.6,18,16.1,38,18.2,63.8"/><path class="cls-3" d="M941,632.75c5.7,48.7,43.9,77.3,49.9,140.3"/><line class="cls-5" x1="666.9" y1="1107.45" x2="846.8" y2="1107.45"/><path class="cls-3" d="M680,1108.15s1.6,86.9,17.6,86.9c14.8,0,18.9-73.7,19.8-86.8,.8-12.9,2.9-69.8,17.4-69.8s18.3,55.9,19.9,69.6c1.5,12.7,4.1,49.8,17.6,49.8,12,0,17.3-37.5,19.7-49.8,2.2-11.9,5.4-36.8,17.4-36.8s16.4,24,20,37c3.3,12.2,8.2,20.4,17.9,20.4"/><path class="cls-7" d="M953.7,1322.05c53.2-85.2,80.9-18.2,99.8,14.3,19.6,33.6,34.3,13.9,45.8-6.5,10.5-18.6,26.5-64.1,26.5-64.1-20.3-52.5-49.8-91.9-81.2-91.9s-64.4,57.1-63.9,55.5c0,0-15.1,64.4-22.4,82.4-5.3,12.9-9.4,22.2-17.4,21.9-11.8-.6-16.6-25.1-21.8-43.7,0,0,24.1-46.5,56.6-44.8"/><path class="cls-2" d="M999.1,1280.95s33,17.5,58.4-103.6"/><path class="cls-2" d="M1019.8,1184.55c-6.2,29.3-24.6,94.7-39.6,102.6,0,0,51.4-47.2,98.4,64.8"/><path class="cls-2" d="M931.9,1325.15s8.6-22.7,33.8-41.7c0,0-8.1-10.4-12.5-31.1"/><path class="cls-2" d="M1101.7,1325.75c-7.8-20.2-38-71.1-65.5-79-31.7-9.1-58.9,27.2-72.4,48.8"/><path class="cls-2" d="M1027.7,1296.65s29.7,43.1,65-89.6"/><path class="cls-12" d="M434.4,800.65l65.2,65.2c.2,.2,.3,.5,.3,.8,0,1-.2,85-.5,85.3-.2,.2-.4,.3-.7,.3h0l-40.2-.1c0,4-.1,18.7-.1,18.9,0,1-.5,1-2.8,1h-38.5v19.7c0,.5-.5,1-1,1h-44.8c-.3,0-.5-.1-.7-.3l-22.1-22.1c-.2-.2-.3-.4-.3-.7l-.1-20.2c-8-8-19.7-19.8-20.5-20.5-.2-.2-.4-.5-.4-.8v-18.7c-1.2-1-22.3-22.2-22.4-22.5v-.3c0-28.9,.1-83.8,0-85.4v-.3c.1-.5,.5-.8,1-.8m172.4,127.8l15.7,15v-74.3l-15.7-15.7v75Zm-.3,6.6v11.5h11.6l-8.5-8.5-3.1-3Zm-148-30.6h17.3v-15.7h-32.9l15.6,15.7h0Zm122.6,58.5v-11.4h-11.4l11.4,11.4Zm-15.9-8.8v12.4h12.4l-12.4-12.4Zm-24.3-3.5h-34.3l15.7,15.7h34.3l-15.7-15.7Zm19.3,12.1v-12.7l-15.6-15.7v12.7l15.6,15.7Zm-38-70.5v13.7l17.4,17.3v-13.8l-17.4-17.2Zm0-8.5h36.4v-77.1h-36.4v77.1h0Zm-37.9,25.7l15.7,15.7h34.3l-15.7-15.7h-34.3Zm32.8-5v-97.8h-36.4v97.8h36.4Zm-14,25.7v15.5h36.4v-15.5h-36.4Zm24.2,41.2l12.3,12.3v-12.3h-12.3Zm9.4,16l-16.3-15.8h-34.3l15.8,15.8h34.8Zm-21.3-20.8l-15.8-15.9h-16.9v15.9h32.7Zm-17.2-20.9v-15.6l-.2-.1h-32.8l15.7,15.7h17.3Zm-36.4-20.7h30.9l-15.5-15.5h-15.5l.1,15.5h0Zm-22.4-41.2h36.4v-77.1h-36.4v77.1Zm86.3,5l15.7,15.7h34.3l-15.7-15.7h-34.3Zm37.8-3.6l15.6,15.7v-75l-15.6-15.7v75Zm-19,24.3v16.5h36.4v-16.5h-36.4Zm3.6,21.4l15.7,15.7h34.3l-15.7-15.7h-34.3Zm37.8-3.5l15.6,15.7v-94.8l-15.6-15.7v94.8h0Z"/><path class="cls-10" d="M398.4,1678.75c-4.5-2.1-7.2-5.9-6.1-8.4s5.8-2.9,10.4-.8,7.2,5.9,6.1,8.4-5.9,2.9-10.4,.8Z"/><path class="cls-10" d="M423.5,1611.05c1.5-3.5,5.6-5,9.1-3.5s5,5.6,3.5,9.1-5.6,5-9.1,3.5-5-5.6-3.5-9.1h0Z"/><path class="cls-10" d="M394.2,1632.75c-1.5,3.5-5.5,5.1-9,3.6s-5.1-5.6-3.6-9c1.5-3.5,5.5-5.1,9-3.6h.1c3.5,1.5,5,5.6,3.5,9h0Z"/><path class="cls-10" d="M398,1607.35c-3.5-1.5-5-5.6-3.5-9.1s5.6-5,9.1-3.5,5,5.6,3.5,9.1h0c-1.5,3.4-5.6,5-9.1,3.5h0Z"/><path class="cls-10" d="M423.2,1645.65c-1.5,3.5-5.6,5-9.1,3.5s-5-5.6-3.5-9.1,5.6-5,9.1-3.5h0c3.5,1.6,5.1,5.6,3.5,9.1h0Z"/><path class="cls-10" d="M460.8,1602.25l13.9,39.4-31.2,70.2-69.1-30.7-1.1-.5-16.5-38.8-.2-.1,32.4-72.1,71.8,32.2v.4c-.1,.1,0,0,0,0Zm-18.3,82.3c1.9,.8,5.2-2.7,7.5-7.8s2.6-10,.7-10.8-5.2,2.7-7.5,7.8-2.6,10-.7,10.8h0Zm-64.5-8.4l58.5,26-11.5-29.9-60-26.7,13,30.6h0Zm14.1-98.4l-27.4,61,61,27.1,27-60.8-60.6-27.3h0Zm65.4,52c-1.9-.8-5.2,2.7-7.5,7.8s-2.6,10-.7,10.8,5.2-2.7,7.5-7.8,2.6-10,.7-10.8Z"/><path class="cls-10" d="M537.7,1590.55c4.8-1.6,9.3-.9,10.1,1.5s-2.3,5.8-7.1,7.4-9.3,1-10.1-1.5,2.4-5.8,7.1-7.4Z"/><path class="cls-10" d="M547.8,1528.35c-3.6,1.2-7.5-.7-8.7-4.3s.7-7.5,4.3-8.7,7.5,.7,8.7,4.3-.7,7.5-4.3,8.7h0Z"/><path class="cls-10" d="M532.5,1559.75c1.2,3.6-.7,7.5-4.3,8.7s-7.5-.7-8.7-4.3,.7-7.5,4.3-8.7h0c3.5-1.2,7.4,.7,8.7,4.3h0Z"/><path class="cls-10" d="M558.1,1558.25c-3.6,1.2-7.5-.7-8.7-4.3s.7-7.5,4.3-8.7,7.5,.7,8.7,4.3-.7,7.5-4.3,8.7h0Z"/><path class="cls-10" d="M542.3,1539.65c1.2,3.6-.7,7.5-4.3,8.7s-7.5-.7-8.7-4.3,.7-7.5,4.3-8.7,7.5,.8,8.7,4.3h0Z"/><path class="cls-10" d="M518,1538.55c-3.6,1.2-7.5-.7-8.7-4.3s.7-7.5,4.3-8.7,7.5,.7,8.7,4.3h0c1.2,3.6-.8,7.5-4.3,8.7h0Z"/><path class="cls-10" d="M566,1603.45l-72.5,24.8-24.8-72.5,17.3-38.4,.3,.1,74-25.3,25.7,74.4-20,36.9h0Zm-4.2-5l15.8-29.3-60.9,20.8-14.5,28.8,59.6-20.3h0Zm-72.3-1.1c.7,3.7,3.4,6.2,5.9,5.7s4-3.9,3.2-7.6-3.4-6.2-5.9-5.7-3.9,3.9-3.2,7.6h0Zm3.5-53.5c-.7-3.7-3.4-6.2-5.9-5.7s-4,3.9-3.2,7.6,3.4,6.2,5.9,5.7,4-3.9,3.2-7.6h0Zm-2.9,20.6c-2.5,.5-4,3.9-3.2,7.6s3.4,6.2,5.9,5.7,4-3.9,3.2-7.6-3.4-6.2-5.9-5.7h0Zm66.4-64.6l-62.7,21.4,21.4,62.7,62.7-21.4-21.4-62.7h0Z"/><ellipse class="cls-5" cx="923.2" cy="242.15" rx="31.2" ry="39.7"/><ellipse class="cls-5" cx="897.1" cy="242.15" rx="31.2" ry="39.7"/><ellipse class="cls-12" cx="910.2" cy="242.15" rx="18.1" ry="36.1"/><path class="cls-12" d="M575.8,1374.95c-2.3,.1-4.7-.6-6.4-2.2-1.6-1.7-2.4-4-2.2-6.3-.1-2.3,.7-4.5,2.2-6.2,1.7-1.6,4.1-2.4,6.4-2.3,2.3-.1,4.6,.7,6.3,2.3,1.6,1.7,2.4,3.9,2.2,6.2,.5,4.3-2.6,8.1-6.9,8.6-.4-.1-1-.1-1.6-.1Z"/><rect class="cls-12" x="568.1" y="1274.95" width="15.3" height="72.3"/><rect class="cls-12" x="658" y="1292.35" width="56.6" height="10.5"/><polygon class="cls-12" points="658 1317.15 714.7 1317.15 714.7 1327.75 659.3 1327.75 658 1317.15"/><rect class="cls-12" x="751" y="1302.65" width="35.5" height="11.8"/><path class="cls-12" d="M602.6,1339.15v5.2l5.3,4.9c10.6,9.9,15.6,15.3,15.7,21.2,0,4-2.2,7.6-8,7.6-4,0-7.4-2-9.7-3.7l-2.5,6c4,3.1,8.9,4.7,13.9,4.6,10,0,14.8-6.3,14.8-13.7,0-7.9-5.7-14.3-13.5-21.6l-4-3.4v-.1h18.5v-7.1l-30.5,.1h0Z"/><path class="cls-12" d="M816.4,1367.55l-27.2-21.4,7.5-9.4c8.1,6.5,12.8,10.4,14.2,11.6s2.6,2.3,3.6,3.4c-.3-4.2-.5-9.9-.5-17v-59.7h14.9v92.6l-12.5-.1h0Z"/><path class="cls-12" d="M254.2,1268.35c-1.3,38.1-47.8,90.1-75.6,121.2l-.6,.7,6,5.9,126.4-126.4,6.4,6.4-126.4,126.4,5.7,5.6,.6-.6c43.2-38.5,84-74.9,123.8-74.9h2.2c38,1.3,90.7,48.5,122.2,76.7,2.5,2.3,4.9,4.4,7.1,6.4l1.7,1.5-3,3.4-1.7-1.5-7-6.4c-29-26-83.1-74.3-119.4-75.5h-2.1c-38,0-78.2,35.9-120.7,73.8l-.4,.4,8.2,8.1c41.4-32.8,73.7-54.8,110.8-54.8,5.3,0,10.5,.4,15.7,1.3,29.4,4.8,64.4,24.5,107.1,60.3l1.7,1.5-2.9,3.5-1.7-1.5c-42-35.3-76.4-54.6-105-59.3-42.1-6.8-76.5,15.9-122.5,52.2l4.2,4.2-18,4.8,4-14.9-15.1,4,3.8-14-5,1.3-.3,.3-.1-.2-8.7,2.4,3.8-14.1-14.3,3.8,4-15-15.2,4,4.9-18.1,4.8,4.8c31.1-38.2,48.4-70,52.8-97.2,7.2-44-18.3-79.8-57.9-129.5l-1.5-1.6,3.6-2.8,1.4,1.8c40.4,50.6,66.3,87.2,58.9,133-5.9,36.4-32.4,73.3-54,99.6l7.9,7.8,.5-.6c27.4-30.6,73.2-81.9,74.4-118.4,1.3-38.1-34.7-78.5-72.9-121.3l-7.4-8.3-1.5-1.7,3.4-3,1.5,1.7,7.4,8.3c38.8,43.5,75.4,84.5,74,124.5h0Z"/><polygon class="cls-12" points="335.3 1303.05 327.2 1272.65 357.6 1280.85 349.7 1288.75 466 1405.75 459.6 1412.15 343.3 1295.15 335.3 1303.05"/><path class="cls-12" d="M471.7,1146.85l15.2-4.1-4.9,18.1-4.6-4.5c-30.8,37.9-48,69.7-52.5,97.2-7.2,44,18.8,80.4,59.2,131.1l1.4,1.8-3.5,2.8-1.4-1.8c-41.2-51.5-67.6-88.8-60.1-134.6,4.6-28.4,22.2-61,53.7-99.7l-7.8-7.6c-.2,.2-.4,.4-.5,.6-27.3,30.6-73,81.7-74.2,118.2-1.3,38.4,35.6,79.8,74.7,123.6,2.2,2.5,4.4,5,6.6,7.4l1.5,1.7-3.4,3-1.5-1.7-6.6-7.4c-39.7-44.5-77.2-86.6-75.8-126.8,1.3-38.1,47.7-90.1,75.4-121.1l.7-.8-6.3-6.2-126.3,126.3-6.4-6.4,126.2-126.2-5.6-5.5-2.1,1.9c-43.3,38.6-84.1,75-124.2,73.7-38.1-1.3-90.3-47.9-121.5-75.8l-6.6-5.9-1.7-1.5,3-3.4,1.7,1.5c2.1,1.8,4.3,3.8,6.7,5.9,30.7,27.4,82.1,73.4,118.6,74.6,38.3,1.3,78.5-34.5,121-72.5l1.9-1.7-8-7.9c-47,37.2-82.2,60.5-126.3,53.3-39-6.4-79.1-36.9-105.8-59.3l-1.8-1.4,2.9-3.5,1.7,1.5c26.3,22,65.7,52,103.6,58.3,42.2,6.9,76.5-15.8,122.3-52l-4.6-4.6,18.1-4.8-4,14.9,15-4-3.7,14,14.1-3.8-3.8,14.1,14.3-3.8-4,14.8h0Z"/><polygon class="cls-12" points="305.7 1228.75 313.8 1259.15 283.4 1250.95 291.3 1243.05 177.8 1129.25 184.1 1122.85 297.7 1236.65 305.7 1228.75"/><path class="cls-12" d="M938.5,1478.75c8,13.5,9.7,26.1,4.9,35.8l12.3,7.1,2.3-4.1,17.1,17.1-23.3-6.3,2.4-4.1-12.3-7.1c-6.3,9.5-19,14.4-35.9,13.7-10.2-.6-20.3-2.6-30-6.1v69h-6v-71.2c-6-2.4-11.8-5.2-17.4-8.4l-25.6,44.3,4.1,2.4-17.1,17.1,6.2-23.4,4.1,2.4,25.6-44.3c-16-9.5-29.5-21.3-38.5-33.8h-56.4v-6.1h52.4c-8-13.5-9.7-26.1-4.9-35.8l-33.8-19.5,1.5-2.7,33.8,19.5c5.9-8.9,17.3-13.7,32.7-13.7,1.1,0,2.2,0,3.2,.1,10.2,.6,20.3,2.6,30,6.1v-69h6.1v71.2c6,2.4,11.8,5.2,17.4,8.4l38-65.9,2.7,1.5-38,65.9c16,9.5,29.5,21.3,38.5,33.8h56.4v6.1h-52.5Zm-85.6,28.6l16.5-28.6h-50.4c8.4,10.6,20.1,20.5,33.9,28.6Zm-45.2-67.5c-3.9,8.2-1.8,19.4,6,31.6,.2,.4,.5,.8,.8,1.2h50l-56.8-32.8Zm62.1-6.7c-9.7-3.7-19.9-5.9-30.2-6.5-14.5-.6-25.2,3.1-30.3,10.6l60.6,35v-39.1h-.1Zm0,51l-14.3,24.8c4.6,2.6,9.4,5,14.3,7.1v-31.9h0Zm6.1,34.2c9.7,3.7,19.9,5.9,30.2,6.5,1,0,2,.1,3,.1,13,0,22.5-3.7,27.3-10.7l-60.6-35,.1,39.1h0Zm0-82.8v31.8l14.3-24.8c-4.6-2.6-9.4-4.9-14.3-7h0Zm17,8.6l-16.5,28.5h50.4c-8.4-10.5-20.2-20.4-33.9-28.5h0Zm39.2,35.9l-.8-1.2h-50l56.8,32.8c3.8-8.3,1.8-19.4-6-31.6h0Z"/><path class="cls-12" d="M707.5,1003.35h-38.4v159.7l1.2,1.2-2.2,2.2-1.4-1.4h-157.3v37.3h-6.1v-199h-16.4v-6.1h14.5l-.1-.1,2-2v-13.4h6.1v15.5h198.1v6.1Zm-43.5,158.6l2-1.9v-156.7h-154.3l2.2,2.3-2.2,2.1-2.4-2.4v156.6h154.7Z"/><polygon class="cls-12" points="532.53 1028.81 536.74 1033.09 538.95 1030.91 534.74 1026.64 532.53 1028.81"/><polygon class="cls-12" points="695.1 1193.94 699.31 1198.21 701.52 1196.04 697.31 1191.76 695.1 1193.94"/><polygon class="cls-12" points="601.31 1098.73 605.52 1103.01 607.73 1100.83 603.51 1096.56 601.31 1098.73"/><polygon class="cls-12" points="545 1041.63 549.21 1045.9 551.42 1043.73 547.21 1039.45 545 1041.63"/><polygon class="cls-12" points="595.06 1092.33 599.27 1096.6 601.48 1094.43 597.27 1090.15 595.06 1092.33"/><polygon class="cls-12" points="582.56 1079.63 586.78 1083.91 588.98 1081.73 584.77 1077.46 582.56 1079.63"/><polygon class="cls-12" points="588.81 1086.05 593.02 1090.32 595.23 1088.15 591.02 1083.87 588.81 1086.05"/><polygon class="cls-12" points="538.84 1035.16 543.05 1039.44 545.26 1037.26 541.05 1032.99 538.84 1035.16"/><polygon class="cls-12" points="676.4 1174.85 680.61 1179.13 682.82 1176.95 678.61 1172.68 676.4 1174.85"/><polygon class="cls-12" points="526.32 1022.59 530.53 1026.86 532.74 1024.68 528.53 1020.41 526.32 1022.59"/><polygon class="cls-12" points="688.9 1187.54 693.11 1191.82 695.32 1189.64 691.1 1185.37 688.9 1187.54"/><polygon class="cls-12" points="682.64 1181.12 686.85 1185.39 689.06 1183.22 684.85 1178.94 682.64 1181.12"/><polygon class="cls-12" points="495.04 990.73 499.25 995.01 501.46 992.83 497.25 988.56 495.04 990.73"/><polygon class="cls-12" points="670.11 1168.55 674.32 1172.82 676.53 1170.65 672.32 1166.37 670.11 1168.55"/><polygon class="cls-12" points="488.75 984.44 492.96 988.71 495.17 986.54 490.96 982.26 488.75 984.44"/><polygon class="cls-12" points="551.32 1047.97 555.54 1052.24 557.74 1050.06 553.53 1045.79 551.32 1047.97"/><polygon class="cls-12" points="570.02 1066.89 574.23 1071.16 576.44 1068.99 572.23 1064.71 570.02 1066.89"/><polygon class="cls-12" points="576.35 1073.25 580.56 1077.52 582.77 1075.35 578.56 1071.07 576.35 1073.25"/><polygon class="cls-12" points="607.58 1105.03 611.79 1109.31 614 1107.13 609.79 1102.86 607.58 1105.03"/><polygon class="cls-12" points="563.81 1060.66 568.02 1064.93 570.23 1062.75 566.01 1058.48 563.81 1060.66"/><polygon class="cls-12" points="513.83 1009.89 518.04 1014.16 520.24 1011.99 516.03 1007.71 513.83 1009.89"/><polygon class="cls-12" points="626.29 1124.14 630.51 1128.41 632.71 1126.23 628.5 1121.96 626.29 1124.14"/><polygon class="cls-12" points="613.84 1111.32 618.05 1115.59 620.26 1113.42 616.05 1109.15 613.84 1111.32"/><polygon class="cls-12" points="632.62 1130.48 636.83 1134.75 639.04 1132.57 634.82 1128.3 632.62 1130.48"/><polygon class="cls-12" points="657.62 1155.86 661.83 1160.14 664.04 1157.96 659.83 1153.69 657.62 1155.86"/><polygon class="cls-12" points="520 1016.24 524.21 1020.52 526.42 1018.34 522.21 1014.07 520 1016.24"/><polygon class="cls-12" points="651.29 1149.52 655.5 1153.8 657.71 1151.62 653.5 1147.35 651.29 1149.52"/><polygon class="cls-12" points="645.09 1143.11 649.3 1147.38 651.51 1145.21 647.3 1140.93 645.09 1143.11"/><polygon class="cls-12" points="638.8 1136.83 643.01 1141.1 645.22 1138.92 641.01 1134.65 638.8 1136.83"/><path class="cls-12" d="M603.1,1129.15c35-26.9,44.8-55.4,44.9-55.7l5.8,1.9c-.3,1-7,20.5-29,42.8l1.7,1.7-2.2,2.2-1.7-1.7c-5.1,5-10.6,9.7-16.3,14l3.2,5.1-32.7,10.1,23.3-25.1,3,4.7h0Z"/><path class="cls-12" d="M571.7,1039.15l-3.2-5.1,32.8-10.1-23.3,25.1-3-4.7c-4.6,3.5-8.7,7.1-12.5,10.6l1.5,1.5-2.2,2.2-1.5-1.5c-23.1,22.5-30.1,42.7-30.2,43l-5.8-1.9c.4-1.4,10.5-31,47.4-59.1Z"/></g></symbol><clipPath id="clippath"><rect class="cls-1" x="1.53" y="2.25" width="55.16" height="79.19"/></clipPath></defs><g id="Laag_1-2-2"><text class="cls-13" transform="translate(45.17 101.22)"><tspan x="0" y="0">PRIME</tspan></text></g><g class="cls-11"><use width="1197.9" height="1719.76" transform="translate(1.53 81.39) scale(.05 -.05)" xlink:href="#PRIME_symbolen_symbool_"/></g></svg>