<?xml version="1.0" encoding="UTF-8" standalone="no"?><!DOCTYPE svg PUBLIC "-//W3C//DTD SVG 1.1//EN" "http://www.w3.org/Graphics/SVG/1.1/DTD/svg11.dtd"><svg width="100%" height="100%" viewBox="0 0 2300 1000" version="1.1" xmlns="http://www.w3.org/2000/svg" xmlns:xlink="http://www.w3.org/1999/xlink" xml:space="preserve" xmlns:serif="http://www.serif.com/" style="fill-rule:evenodd;clip-rule:evenodd;stroke-linejoin:round;stroke-miterlimit:2;"><g><text x="400.649px" y="1000px" style="font-family:'ArialMT', 'Arial', sans-serif;font-size:569.069px;fill:#fff;">P</text><text x="768.832px" y="1000px" style="font-family:'ArialMT', 'Arial', sans-serif;font-size:569.069px;fill:#fff;">R</text><text x="1179.8px" y="1000px" style="font-family:'ArialMT', 'Arial', sans-serif;font-size:569.069px;fill:#fff;">I</text><text x="1349.28px" y="1000px" style="font-family:'ArialMT', 'Arial', sans-serif;font-size:569.069px;fill:#fff;">M</text><text x="1811.94px" y="1000px" style="font-family:'ArialMT', 'Arial', sans-serif;font-size:569.069px;fill:#fff;">E</text><text x="386.225px" y="564.86px" style="font-family:'ArialMT', 'Arial', sans-serif;font-size:23.812px;fill:#fff;">∫</text><path d="M328.146,610.758l72.227,0" style="fill:none;fill-rule:nonzero;"/><path d="M385.285,611.558l0,-29.354c-6.371,0.544 -14.398,-2.534 -24.589,-11.201c-3.838,-3.272 -7.333,-4.857 -10.468,-5.335l-0,45.89" style="fill:#fff;fill-rule:nonzero;"/><path d="M332.278,576.952c-0,0 10.577,-21.16 28.431,-5.949c17.854,15.21 29.095,13.221 36.366,4.628" style="fill:#fff;fill-rule:nonzero;"/><path d="M357.087,568.495l-0,41.368" style="fill:none;fill-rule:nonzero;"/><path d="M363.958,573.484l0,36.379" style="fill:none;fill-rule:nonzero;"/><path d="M370.826,578.472l-0,31.391" style="fill:none;fill-rule:nonzero;"/><path d="M377.698,581.589l-0,28.274" style="fill:none;fill-rule:nonzero;"/><text x="206.749px" y="233.28px" style="font-family:'ArialMT', 'Arial', sans-serif;font-size:37.363px;fill:#fff;">f(x)</text><path d="M123.614,329.583l135.993,-0" style="fill:none;fill-rule:nonzero;"/><path d="M128.519,316.173c0,-0 38.518,-58.106 124.014,-62.58" style="fill:#fff;fill-rule:nonzero;"/><path d="M276.223,381.085l-0.097,-24.954l-69.895,-0l-0,9.541l28.255,44.112l-28.255,38.996l-0,11.926l69.895,-0l0.097,-29.125l-12.19,-0l0,17.199l-42.583,0l30.947,-42.197l-25.766,-40.911l37.402,0l0,15.413l12.19,-0Z" style="fill:#fff;fill-rule:nonzero;"/><text x="61.684px" y="25.017px" style="font-family:'ArialMT', 'Arial', sans-serif;font-size:24.616px;fill:#fff;">=</text><path d="M0,82.837l78.392,-0" style="fill:none;fill-rule:nonzero;"/><path d="M1.01,14.514c-0,-0 44.59,22.297 62.514,76.841" style="fill:#fff;fill-rule:nonzero;"/><path d="M22.618,89.92c-0,-0 16.527,-39.194 48.081,-50.237" style="fill:#fff;fill-rule:nonzero;"/><circle cx="46.145" cy="56.548" r="6.099" style="fill:#fff;"/><path d="M424.457,759.221c-5.879,-27.852 -20.694,-44.085 -45.666,-55.431" style="fill:#fff;fill-rule:nonzero;"/><path d="M385.606,697.739l44.779,50.492" style="fill:none;fill-rule:nonzero;"/><path d="M375.814,752.231l62.198,-0" style="fill:none;fill-rule:nonzero;"/><path d="M413.822,711.36l22.912,-0" style="fill:none;fill-rule:nonzero;"/><text x="415.754px" y="727.027px" style="font-family:'ArialMT', 'Arial', sans-serif;font-size:17.577px;fill:#fff;">dx</text><text x="420.356px" y="707.799px" style="font-family:'ArialMT', 'Arial', sans-serif;font-size:17.577px;fill:#fff;">d</text><text x="453.833px" y="529.921px" style="font-family:'ArialMT', 'Arial', sans-serif;font-size:7.026px;fill:#fff;">x</text><text x="460.731px" y="524.959px" style="font-family:'ArialMT', 'Arial', sans-serif;font-size:4.075px;fill:#fff;">2</text><path d="M415.732,565.58l49.943,-0" style="fill:none;fill-rule:nonzero;"/><path d="M418.911,531.932c4.606,23.022 6.859,33.103 15.07,33.103" style="fill:#fff;fill-rule:nonzero;"/><path d="M448.867,531.932c-4.607,23.022 -6.859,33.103 -15.07,33.103" style="fill:#fff;fill-rule:nonzero;"/><path d="M370.093,484.479l1.089,-0.325l-0.479,-1.594l-1.085,0.333l0.475,1.586Z" style="fill:#fff;fill-rule:nonzero;"/><path d="M368.613,475.738l-1.082,0.337l0.663,2.125l1.081,-0.337l-0.662,-2.125Z" style="fill:#fff;"/><path d="M369.575,478.895l-1.083,0.33l0.649,2.134l1.084,-0.33l-0.65,-2.134Z" style="fill:#fff;"/><path d="M365.157,468.864l1.072,-0.377l-0.751,-2.099l-1.067,0.386l0.746,2.09Z" style="fill:#fff;fill-rule:nonzero;"/><path d="M373.812,497.076l1.084,-0.342l-0.658,-2.121l-1.085,0.329l0.659,2.134Z" style="fill:#fff;fill-rule:nonzero;"/><path d="M395.121,524.111l0.558,0.115l0.232,-1.107l-0.557,-0.118c-0.334,-0.071 -0.681,-0.15 -1.036,-0.242l-0.549,-0.145l-0.286,1.098l0.549,0.14c0.369,0.101 0.733,0.185 1.089,0.259Z" style="fill:#fff;fill-rule:nonzero;"/><path d="M383.147,516.326c0.237,0.295 0.474,0.584 0.707,0.878l0.369,0.44l0.878,-0.738l-0.365,-0.439c-0.228,-0.264 -0.439,-0.54 -0.685,-0.826l-0.351,-0.439l-0.878,0.707l0.325,0.417Z" style="fill:#fff;fill-rule:nonzero;"/><path d="M398.357,524.687l0.558,0.109l0.219,-1.11l-0.557,-0.115c-0.338,-0.065 -0.707,-0.127 -1.098,-0.188l-0.558,-0.093l-0.184,1.116l0.562,0.092c0.373,0.061 0.729,0.123 1.058,0.189Z" style="fill:#fff;fill-rule:nonzero;"/><path d="M374.321,498.622c0.119,0.351 0.237,0.702 0.36,1.041l0.185,0.535l1.071,-0.373l-0.189,-0.536l-0.351,-1.027l-0.18,-0.54l-1.076,0.364l0.18,0.536Z" style="fill:#fff;fill-rule:nonzero;"/><path d="M377.074,505.819l0.229,0.518l1.04,-0.439l-0.228,-0.523c-0.145,-0.325 -0.286,-0.658 -0.439,-0.997l-0.224,-0.522l-1.045,0.439l0.224,0.523c0.153,0.329 0.298,0.667 0.443,1.001Z" style="fill:#fff;fill-rule:nonzero;"/><path d="M377.996,507.821c0.163,0.338 0.321,0.667 0.483,0.992l0.255,0.51l1.014,-0.51l-0.254,-0.505c-0.158,-0.316 -0.317,-0.641 -0.475,-0.974l-0.241,-0.51l-1.028,0.488l0.246,0.509Z" style="fill:#fff;fill-rule:nonzero;"/><path d="M332.69,517.183c0.233,-0.273 0.47,-0.562 0.707,-0.879l0.352,-0.439l-0.879,-0.707l-0.351,0.439c-0.228,0.286 -0.439,0.562 -0.681,0.826l-0.368,0.439l0.878,0.738l0.342,-0.417Z" style="fill:#fff;fill-rule:nonzero;"/><path d="M338.069,508.813c0.163,-0.325 0.321,-0.654 0.483,-0.992l0.246,-0.509l-1.023,-0.488l-0.246,0.51c-0.158,0.333 -0.316,0.658 -0.474,0.974l-0.255,0.505l1.015,0.51l0.254,-0.51Z" style="fill:#fff;fill-rule:nonzero;"/><path d="M339.47,505.819c0.145,-0.334 0.29,-0.672 0.439,-1.015l0.224,-0.522l-1.045,-0.439l-0.224,0.522c-0.14,0.338 -0.281,0.672 -0.439,0.997l-0.228,0.523l1.04,0.439l0.233,-0.505Z" style="fill:#fff;fill-rule:nonzero;"/><path d="M318.187,524.687c0.329,-0.066 0.685,-0.128 1.058,-0.189l0.562,-0.092l-0.184,-1.116l-0.558,0.093c-0.391,0.061 -0.759,0.123 -1.098,0.188l-0.557,0.115l0.219,1.11l0.558,-0.109Z" style="fill:#fff;fill-rule:nonzero;"/><path d="M341.863,499.663c0.123,-0.339 0.242,-0.69 0.36,-1.041l0.18,-0.536l-1.076,-0.364l-0.18,0.54l-0.351,1.027l-0.189,0.536l1.072,0.373l0.184,-0.535Z" style="fill:#fff;fill-rule:nonzero;"/><path d="M321.427,524.111c0.352,-0.074 0.716,-0.158 1.089,-0.259l0.549,-0.14l-0.285,-1.098l-0.549,0.145c-0.356,0.092 -0.703,0.171 -1.036,0.242l-0.558,0.118l0.237,1.107l0.553,-0.115Z" style="fill:#fff;fill-rule:nonzero;"/><path d="M352.134,466.774l-1.067,-0.386l-0.751,2.099l1.071,0.377l0.747,-2.09Z" style="fill:#fff;fill-rule:nonzero;"/><path d="M347.91,475.689l-0.665,2.125l1.081,0.338l0.665,-2.125l-1.081,-0.338Z" style="fill:#fff;"/><path d="M355.102,459.907l0.298,-0.483c0.18,-0.293 0.375,-0.576 0.584,-0.848l0.352,-0.439l-0.879,-0.702l-0.346,0.439c-0.234,0.303 -0.453,0.618 -0.655,0.944l-0.303,0.483l0.949,0.606Z" style="fill:#fff;fill-rule:nonzero;"/><path d="M346.921,482.893l-1.08,-0.333l-0.478,1.594l1.084,0.325l0.474,-1.586Z" style="fill:#fff;fill-rule:nonzero;"/><path d="M346.953,478.867l-0.648,2.135l1.084,0.329l0.648,-2.135l-1.084,-0.329Z" style="fill:#fff;"/><path d="M343.391,494.942l-1.084,-0.329l-0.659,2.121l1.08,0.342l0.663,-2.134Z" style="fill:#fff;fill-rule:nonzero;"/><path d="M391.832,527.44l0,-4.303l0.049,0.022l0.531,0.21l0.413,-1.058l-0.527,-0.206c-0.154,-0.062 -0.312,-0.136 -0.466,-0.202l0,-2.96l-4.659,0l-0.228,-0.202c-0.255,-0.232 -0.514,-0.474 -0.773,-0.729l-0.404,-0.399l-0.794,0.808l0.399,0.399l0.136,0.123l-3.122,0l0,-4.101l0.698,-0.483l-0.324,-0.465c-0.123,-0.176 -0.246,-0.369 -0.374,-0.554l0,-10.656l-5.379,-0l-0.127,-0.33c-0.132,-0.333 -0.259,-0.676 -0.391,-1.018l-0.197,-0.532l-1.063,0.4l0.202,0.531c0.119,0.321 0.237,0.637 0.36,0.949l-2.793,-0l0,-8.782l0.949,-0.273l-0.619,-2.142l-0.33,0.096l0,-1.098l0.036,0l-0.036,-0.122l0,-18.399l-6.709,0l0.997,-0.329l-0.712,-2.116l-1.071,0.364l0.698,2.081l-2.696,0l0,-7.548c0.114,0.286 0.228,0.576 0.347,0.878l0.202,0.527l1.058,-0.404l-0.202,-0.531c-0.136,-0.356 -0.268,-0.698 -0.399,-1.027l-0.211,-0.523l-0.795,0.316l0,-1.137l0.382,-0.171l-0.233,-0.518c-0.052,-0.115 -0.101,-0.216 -0.149,-0.325l0,-5.603l-10.538,-0l-0,5.844l-0.04,0.084l-0.232,0.518l0.272,0.123l-0,1.146l-0.694,-0.277l-0.211,0.523c-0.131,0.329 -0.263,0.671 -0.399,1.027l-0.202,0.531l1.058,0.404l0.202,-0.527c0.083,-0.223 0.167,-0.439 0.246,-0.636l-0,7.302l-2.635,-0l0.698,-2.081l-1.071,-0.365l-0.711,2.117l0.996,0.329l-6.696,-0l0,18.398l-0.035,0.123l0.035,0l0,1.098l-0.329,-0.097l-0.619,2.143l0.948,0.272l0,8.782l-2.792,0c0.122,-0.312 0.241,-0.628 0.36,-0.948l0.202,-0.532l-1.063,-0.399l-0.198,0.531c-0.131,0.343 -0.259,0.685 -0.39,1.019l-0.128,0.329l-5.379,0l0,10.648c-0.127,0.185 -0.25,0.378 -0.373,0.554l-0.325,0.465l0.698,0.483l0,4.101l-3.126,0l0.136,-0.123l0.4,-0.399l-0.795,-0.808l-0.404,0.399c-0.259,0.255 -0.518,0.496 -0.773,0.729l-0.228,0.202l-4.659,0l-0,2.96c-0.154,0.066 -0.312,0.14 -0.466,0.202l-0.526,0.206l0.412,1.058l0.532,-0.211l0.048,-0.021l-0,4.303l-9.919,-0l-0,2.252l86.941,0l-0,-2.252l-9.902,0.013Zm-3.952,-7.364l-0.439,0.589l0.461,0.329c0.312,0.224 0.624,0.439 0.931,0.632l0.483,0.303l0.606,-0.957l-0.478,-0.307c-0.29,-0.18 -0.58,-0.378 -0.879,-0.589l2.095,0l-0,1.616l-0.369,0.777l0.369,0.176l-0,4.795l-8.286,-0l0,-7.364l5.506,0Zm-6.648,-16.246l0,7.741l-0.223,-0.387c-0.176,-0.302 -0.356,-0.619 -0.532,-0.939l-0.272,-0.496l-0.992,0.549l0.272,0.496c0.18,0.329 0.364,0.65 0.544,0.961l0.286,0.492l0.917,-0.536l0,1.225l-0.351,0.233l0.308,0.474l0.043,0.066l0,13.753l-8.255,-0l0,-23.624l8.255,-0.008Zm-14.679,-30.737l0.646,2.011l1.08,-0.347l-0.536,-1.664l4.106,-0l-0,13.388l-0.382,-1.291l-1.085,0.321l0.628,2.138l0.839,-0.246l-0,1.098l-0.545,0.158l0.545,1.835l-0,12.19l-0.031,24.756l-8.255,-0l0,-54.373l2.99,0.026Zm-9.928,-16.062l0.233,0.584l0.527,-0.211c0.273,-0.104 0.564,-0.155 0.856,-0.149l0.027,-0c0.292,-0.006 0.583,0.045 0.856,0.149l0.527,0.211l0.233,-0.584l2.441,-0l-0,2.195l-0.237,-0.382c-0.2,-0.326 -0.419,-0.642 -0.654,-0.944l-0.347,-0.439l-0.878,0.703l0.351,0.439c0.209,0.272 0.404,0.554 0.584,0.847l0.303,0.483l0.9,-0.562l-0,1.221l-0.439,0.211l0.246,0.513l0.193,0.409l0.039,65.741l-8.285,0l-0,-55.532l-0.027,-9.963c0.106,-0.233 0.211,-0.47 0.316,-0.681l0.246,-0.514l-0.566,-0.272l-0,-3.513l2.555,0.04Zm-7.859,16.062l-0.536,1.664l1.08,0.347l0.646,-2.011l3.012,-0l-0,54.373l-8.255,0l-0,-37.007l0.527,-1.8l-0.527,-0.154l-0,-1.098l0.825,0.242l0.633,-2.138l-1.089,-0.321l-0.369,1.247l-0,-13.344l4.053,-0Zm-5.234,30.737l-0,23.623l-8.255,0l-0,-13.752l0.044,-0.066l0.307,-0.475l-0.351,-0.232l-0,-1.225l0.917,0.535l0.286,-0.491c0.18,-0.312 0.364,-0.633 0.544,-0.962l0.272,-0.496l-0.992,-0.549l-0.272,0.496c-0.176,0.321 -0.356,0.637 -0.531,0.94l-0.224,0.386l-0,-7.732l8.255,-0Zm-17.705,18.828l0.369,-0.176l-0.369,-0.777l0,-1.616l2.112,0c-0.294,0.211 -0.584,0.409 -0.878,0.589l-0.479,0.307l0.606,0.957l0.483,-0.303c0.308,-0.197 0.62,-0.408 0.931,-0.632l0.461,-0.329l-0.439,-0.589l5.507,0l-0,7.364l-8.286,0l-0.018,-4.795Z" style="fill:#fff;fill-rule:nonzero;"/><path d="M410.929,379.328c-0,0 10.766,-18.934 13.172,-22.644c2.407,-3.71 12.993,-17.261 25.244,0.373c12.251,17.634 24.317,42.874 26.728,45.473c2.411,2.599 12.993,18.376 25.244,0.558c4.948,-7.197 9.998,-15.544 14.415,-23.185" style="fill:#fff;fill-rule:nonzero;"/><text x="446.17px" y="318.386px" style="font-family:'ArialMT', 'Arial', sans-serif;font-size:38.43px;fill:#fff;">sin x</text><path d="M397.154,379.833l128.831,0" style="fill:none;fill-rule:nonzero;"/><text x="382.212px" y="369.69px" style="font-family:'ArialMT', 'Arial', sans-serif;font-size:30.434px;fill:#fff;">e</text><text x="397.461px" y="359.556px" style="font-family:'ArialMT', 'Arial', sans-serif;font-size:17.652px;fill:#fff;">x</text><path d="M305.018,442.541l102.029,-0" style="fill:none;fill-rule:nonzero;"/><path d="M363.036,351.555c-5.163,23.224 -15.311,63.011 -36.445,81.861" style="fill:#fff;fill-rule:nonzero;"/><path d="M435.092,262.01l-4.856,0l-0,1.129l3.495,-0l-0.58,3.232l1.111,0.206l0.83,-4.567Z" style="fill:#fff;fill-rule:nonzero;"/><path d="M373.768,281.62l-9.669,50.791l37.104,0.004" style="fill:#fff;fill-rule:nonzero;"/><path d="M366.536,284.764l10.947,-22.661l1.857,25.098l-12.804,-2.437Z" style="fill:#fff;fill-rule:nonzero;"/><path d="M396.759,338.931l24.313,-6.507l-24.313,-6.525l-0,13.032Z" style="fill:#fff;fill-rule:nonzero;"/><path d="M363.972,332.314l56.322,-56.02" style="fill:none;fill-rule:nonzero;"/><path d="M421.739,284.044l12.646,-21.761l-21.836,12.523l9.19,9.238Z" style="fill:#fff;fill-rule:nonzero;"/><path d="M427.623,262.572l-48.283,0" style="fill:none;fill-rule:nonzero;"/><path d="M421.761,330.65l11.425,-61.548" style="fill:none;fill-rule:nonzero;"/><path d="M450.983,481.537c0.676,-5.818 2.411,-10.978 4.624,-16.001" style="fill:#fff;fill-rule:nonzero;"/><path d="M443.268,481.638c1.638,-14.306 9.66,-24.717 15.535,-38.386" style="fill:#fff;fill-rule:nonzero;"/><path d="M436.506,481.106c2.494,-21.344 19.228,-34.034 21.59,-61.912" style="fill:#fff;fill-rule:nonzero;"/><path d="M429.103,481.532c2.454,-21.489 19.36,-34.188 21.625,-62.351" style="fill:#fff;fill-rule:nonzero;"/><path d="M421.098,481.304c2.459,-21.424 19.276,-34.113 21.608,-62.123" style="fill:#fff;fill-rule:nonzero;"/><path d="M405.721,481.036c2.52,-21.296 19.219,-33.99 21.577,-61.855" style="fill:#fff;fill-rule:nonzero;"/><path d="M398.634,481.137c2.481,-21.358 19.228,-34.047 21.59,-61.956" style="fill:#fff;fill-rule:nonzero;"/><path d="M396.904,462.879c5.862,-12.637 14.393,-24.589 16.172,-43.698" style="fill:#fff;fill-rule:nonzero;"/><path d="M398.059,447.173c3.763,-7.904 7.056,-16.686 7.996,-27.992" style="fill:#fff;fill-rule:nonzero;"/><path d="M413.212,481.712c2.503,-21.362 19.263,-33.929 21.915,-61.618" style="fill:#fff;fill-rule:nonzero;"/><path d="M292.825,273.256l78.993,-0" style="fill:none;fill-rule:nonzero;"/><path d="M298.608,272.948c-0,0 0.711,-38.153 7.728,-38.153c6.49,0 8.312,32.379 8.676,38.109c0.36,5.66 1.278,30.627 7.654,30.627c6.586,0 8.048,-24.541 8.747,-30.57c0.645,-5.572 1.787,-21.884 7.723,-21.884c5.269,-0 7.61,16.457 8.637,21.884c0.988,5.239 2.367,16.181 7.645,16.181c5.023,0 7.21,-10.56 8.782,-16.246c1.458,-5.349 3.583,-8.958 7.864,-8.958" style="fill:#fff;fill-rule:nonzero;"/><path d="M418.744,179.039c23.378,37.428 35.506,8 43.844,-6.293c8.607,-14.758 15.061,-6.112 20.089,2.846c4.597,8.18 11.64,28.146 11.64,28.146c-8.904,23.057 -21.88,40.34 -35.667,40.34c-13.788,-0 -28.287,-25.086 -28.041,-24.348c-0,-0 -6.639,-28.291 -9.836,-36.16c-2.31,-5.682 -4.136,-9.761 -7.627,-9.594c-5.164,0.246 -7.293,11.004 -9.594,19.188c-0,0 10.578,20.414 24.844,19.676" style="fill:#fff;fill-rule:nonzero;"/><path d="M438.71,197.099c0,-0 14.49,-7.667 25.657,45.503" style="fill:#fff;fill-rule:nonzero;"/><path d="M447.813,239.406c-2.727,-12.875 -10.806,-41.592 -17.397,-45.074c-0,0 22.56,20.721 43.224,-28.471" style="fill:#fff;fill-rule:nonzero;"/><path d="M409.212,177.664c-0,0 3.785,9.95 14.854,18.315c0,-0 -3.539,4.562 -5.51,13.665" style="fill:#fff;fill-rule:nonzero;"/><path d="M483.74,177.418c-3.443,8.857 -16.686,31.216 -28.779,34.689c-13.902,3.987 -25.88,-11.961 -31.777,-21.419" style="fill:#fff;fill-rule:nonzero;"/><path d="M451.273,190.209c-0,0 13.037,-18.938 28.541,39.356" style="fill:#fff;fill-rule:nonzero;"/><path d="M190.757,408.001l28.633,-28.625c0.092,-0.091 0.138,-0.218 0.128,-0.346c-0,-0.44 -0.079,-37.324 -0.216,-37.464c-0.082,-0.084 -0.194,-0.131 -0.311,-0.132l-17.674,0.048c0,-1.756 -0.04,-8.224 -0.04,-8.285c0,-0.439 -0.21,-0.439 -1.216,-0.439l-16.927,-0l0,-8.664c0,-0.241 -0.198,-0.439 -0.439,-0.439l-19.658,0c-0.117,-0.001 -0.229,0.045 -0.312,0.127l-9.717,9.704c-0.081,0.082 -0.127,0.193 -0.128,0.308l-0.026,8.883c-3.513,3.513 -8.646,8.698 -8.997,9.023c-0.107,0.082 -0.17,0.208 -0.171,0.343l-0,8.193c-0.527,0.439 -9.779,9.757 -9.819,9.871c-0.015,0.045 -0.023,0.093 -0.022,0.141c0,12.707 0.04,36.809 0.022,37.507c-0.004,0.038 -0.004,0.077 0,0.114c0.041,0.209 0.227,0.36 0.439,0.356m75.674,-56.13l6.877,-6.586l-0,32.612l-6.877,6.902l0,-32.928Zm-0.123,-2.92l0,-5.058l5.116,0l-3.741,3.746l-1.375,1.312Zm-64.986,13.467l7.579,0l-0,6.894l-14.455,0l6.876,-6.894Zm53.816,-25.713l-0,5.01l-5.001,0l5.001,-5.01Zm-6.999,3.899l-0,-5.453l5.44,-0l-5.44,5.453Zm-10.631,1.524l-15.061,-0l6.876,-6.894l15.066,0l-6.881,6.894Zm8.435,-5.34l0,5.577l-6.872,6.889l0,-5.576l6.872,-6.89Zm-16.686,30.974l0,-5.998l7.619,-7.614l-0,6.038l-7.619,7.574Zm0,3.746l15.966,-0l0,33.854l-15.961,0l-0.005,-33.854Zm-16.628,-11.285l6.876,-6.894l15.066,0l-6.881,6.894l-15.061,0Zm14.429,2.195l-0,42.944l-15.962,0l0,-42.944l15.962,0Zm-6.148,-11.284l0,-6.811l15.966,0l-0,6.811l-15.966,-0Zm10.631,-18.095l5.409,-5.423l0,5.423l-5.409,-0Zm4.127,-7.026l-7.157,6.942l-15.052,0l6.946,-6.946l15.263,0.004Zm-9.352,9.138l-6.965,6.977l-7.412,-0l0,-6.977l14.377,-0Zm-7.592,9.172l-0,6.868l-0.079,0.026l-14.385,0l6.876,-6.894l7.588,0Zm-15.97,9.09l13.581,-0l-6.793,6.81l-6.797,0l0.009,-6.81Zm-9.81,18.095l15.961,-0l0,33.854l-15.961,0l0,-33.854Zm37.877,-2.196l6.876,-6.894l15.065,0l-6.88,6.894l-15.061,0Zm16.615,1.55l6.872,-6.889l-0,32.932l-6.872,6.89l0,-32.933Zm-8.343,-10.639l0,-7.223l15.961,-0l0,7.223l-15.961,0Zm1.546,-9.419l6.88,-6.893l15.066,-0l-6.881,6.893l-15.065,0Zm16.62,1.55l6.872,-6.889l-0,41.618l-6.872,6.889l-0,-41.618Z" style="fill:#fff;fill-rule:nonzero;"/><path d="M174.923,22.417c-1.989,0.927 -3.179,2.582 -2.661,3.697c0.518,1.116 2.556,1.265 4.545,0.339c1.989,-0.927 3.183,-2.587 2.661,-3.702c-0.523,-1.115 -2.556,-1.273 -4.545,-0.334Z" style="fill:#fff;fill-rule:nonzero;"/><path d="M185.966,52.122c0.484,1.087 1.567,1.791 2.757,1.791c1.654,0 3.016,-1.361 3.016,-3.016c0,-1.655 -1.362,-3.017 -3.016,-3.017c-0.422,0 -0.839,0.088 -1.224,0.26c-1.088,0.483 -1.793,1.566 -1.793,2.757c0,0.422 0.089,0.839 0.26,1.225Z" style="fill:#fff;fill-rule:nonzero;"/><path d="M173.109,42.616c-0.477,-1.101 -1.567,-1.817 -2.767,-1.817c-1.655,-0 -3.017,1.362 -3.017,3.017c0,1.654 1.362,3.016 3.017,3.016c0.426,0 0.847,-0.09 1.235,-0.264c1.498,-0.67 2.187,-2.448 1.532,-3.952Z" style="fill:#fff;fill-rule:nonzero;"/><path d="M174.778,53.786c-1.089,0.483 -1.795,1.567 -1.795,2.758c0,1.655 1.362,3.017 3.017,3.017c1.655,0 3.016,-1.362 3.016,-3.017c0,-0.422 -0.088,-0.839 -0.26,-1.225c-0.482,-1.088 -1.564,-1.793 -2.754,-1.793c-0.422,0 -0.839,0.089 -1.224,0.26Z" style="fill:#fff;fill-rule:nonzero;"/><path d="M185.834,36.951c-0.482,-1.089 -1.566,-1.794 -2.758,-1.794c-1.654,-0 -3.016,1.361 -3.016,3.016c-0,1.655 1.362,3.017 3.016,3.017c0.423,-0 0.84,-0.089 1.226,-0.26c1.511,-0.672 2.202,-2.467 1.532,-3.979Z" style="fill:#fff;fill-rule:nonzero;"/><path d="M202.323,56.004l6.121,-17.287l-13.687,-30.847l-30.359,13.467l-0.483,0.215l-7.223,17.042l-0.079,0.035l14.231,31.65l31.514,-14.144l-0.071,-0.153l0.036,0.022Zm-8.023,-36.147c0.821,-0.364 2.301,1.173 3.307,3.434c1.005,2.261 1.15,4.391 0.325,4.755c-0.826,0.365 -2.301,-1.172 -3.302,-3.433c-1.002,-2.262 -1.151,-4.391 -0.33,-4.756Zm-28.326,3.719l25.683,-11.394l-5.067,13.146l-26.307,11.672l5.691,-13.424Zm6.218,43.19l-12.027,-26.785l26.785,-11.886l11.855,26.679l-26.613,11.992Zm28.708,-22.833c-0.821,0.364 -2.301,-1.172 -3.307,-3.434c-1.005,-2.261 -1.15,-4.391 -0.324,-4.755c0.825,-0.365 2.3,1.172 3.302,3.434c1.001,2.261 1.15,4.391 0.329,4.755Z" style="fill:#fff;fill-rule:nonzero;"/><path d="M236.111,61.163c2.086,0.711 4.075,0.417 4.444,-0.658c0.369,-1.076 -1.023,-2.525 -3.109,-3.237c-2.086,-0.711 -4.075,-0.439 -4.444,0.655c-0.369,1.093 1.023,2.529 3.109,3.24Z" style="fill:#fff;fill-rule:nonzero;"/><path d="M240.559,88.466c-0.313,-0.106 -0.641,-0.161 -0.971,-0.161c-1.65,0 -3.008,1.358 -3.008,3.008c0,1.65 1.358,3.008 3.008,3.008c1.283,-0 2.431,-0.821 2.846,-2.035c0.107,-0.313 0.162,-0.642 0.162,-0.973c-0,-1.284 -0.822,-2.432 -2.037,-2.847Z" style="fill:#fff;fill-rule:nonzero;"/><path d="M233.797,74.67c0.107,-0.313 0.161,-0.642 0.161,-0.973c0,-1.65 -1.357,-3.007 -3.007,-3.007c-1.65,-0 -3.008,1.357 -3.008,3.007c-0,1.285 0.822,2.434 2.038,2.848c1.561,0.531 3.283,-0.315 3.816,-1.875Z" style="fill:#fff;fill-rule:nonzero;"/><path d="M245.06,75.333c-0.313,-0.107 -0.641,-0.161 -0.971,-0.161c-1.65,-0 -3.008,1.358 -3.008,3.008c-0,1.65 1.358,3.007 3.008,3.007c1.283,0 2.431,-0.82 2.846,-2.034c0.531,-1.562 -0.314,-3.285 -1.875,-3.82Z" style="fill:#fff;fill-rule:nonzero;"/><path d="M238.122,83.474c0.107,-0.313 0.161,-0.641 0.161,-0.971c0,-1.65 -1.358,-3.008 -3.008,-3.008c-1.65,-0 -3.007,1.358 -3.007,3.008c-0,1.282 0.82,2.43 2.034,2.846c1.562,0.531 3.285,-0.314 3.82,-1.875Z" style="fill:#fff;fill-rule:nonzero;"/><path d="M227.434,83.979c-0.313,-0.107 -0.641,-0.162 -0.972,-0.162c-1.65,0 -3.008,1.358 -3.008,3.008c0,1.65 1.358,3.008 3.008,3.008c1.284,-0 2.433,-0.823 2.847,-2.039c0.532,-1.561 -0.314,-3.282 -1.875,-3.815Z" style="fill:#fff;fill-rule:nonzero;"/><path d="M248.529,55.494l-31.839,-10.889l-10.885,31.843l7.592,16.875l0.118,-0.053l32.493,11.113l11.263,-32.673l-8.742,-16.216Zm-1.862,2.196l6.924,12.857l-26.749,-9.147l-6.332,-12.637l26.157,8.927Zm-31.725,0.474c0.325,-1.607 1.493,-2.727 2.604,-2.503c1.111,0.224 1.756,1.713 1.423,3.32c-0.334,1.607 -1.493,2.727 -2.604,2.498c-1.111,-0.228 -1.752,-1.708 -1.423,-3.31l0,-0.005Zm1.533,23.483c-0.325,1.607 -1.493,2.727 -2.604,2.498c-1.111,-0.228 -1.757,-1.712 -1.423,-3.315c0.334,-1.602 1.493,-2.726 2.604,-2.503c1.111,0.224 1.752,1.717 1.423,3.324l-0,-0.004Zm-1.287,-9.037c-1.115,-0.228 -1.756,-1.712 -1.423,-3.319c0.334,-1.607 1.493,-2.727 2.604,-2.503c1.111,0.224 1.757,1.712 1.423,3.32c-0.334,1.607 -1.493,2.731 -2.604,2.507l0,-0.005Zm29.147,28.362l-27.531,-9.41l9.414,-27.532l27.514,9.41l-9.397,27.532Z" style="fill:#fff;fill-rule:nonzero;"/><ellipse cx="405.392" cy="653.202" rx="13.713" ry="17.445" style="fill:#fff;"/><ellipse cx="393.9" cy="653.202" rx="13.713" ry="17.445" style="fill:#fff;"/><ellipse cx="399.648" cy="653.202" rx="7.965" ry="15.843" style="fill:#fff;"/><path d="M252.854,155.832c-1.034,-0.067 -2.052,0.284 -2.824,0.975c-0.697,0.753 -1.054,1.76 -0.988,2.784c-0.055,1 0.303,1.98 0.988,2.709c0.766,0.702 1.787,1.061 2.824,0.993c1.02,0.063 2.022,-0.296 2.77,-0.993c0.686,-0.729 1.043,-1.709 0.988,-2.709c0.013,-0.12 0.02,-0.241 0.02,-0.362c-0,-1.874 -1.542,-3.416 -3.417,-3.416c-0.12,0 -0.241,0.007 -0.361,0.019Z" style="fill:#fff;fill-rule:nonzero;"/><rect x="249.442" y="168" width="6.74" height="31.729" style="fill:#fff;"/><rect x="288.934" y="187.461" width="24.866" height="4.597" style="fill:#fff;"/><path d="M288.934,181.177l24.866,0l0,-4.624l-24.286,0l-0.58,4.624Z" style="fill:#fff;fill-rule:nonzero;"/><rect x="329.757" y="182.389" width="15.592" height="5.164" style="fill:#fff;"/><path d="M264.586,171.539l0,-2.283l2.345,-2.165c4.663,-4.325 6.859,-6.701 6.885,-9.322c0,-1.757 -0.944,-3.32 -3.513,-3.32c-1.756,0 -3.231,0.878 -4.237,1.642l-1.098,-2.634c1.744,-1.347 3.892,-2.066 6.095,-2.042c4.391,0 6.521,2.771 6.521,6.003c-0,3.473 -2.499,6.274 -5.941,9.475l-1.757,1.493l0,0.057l8.137,0l-0,3.109l-13.437,-0.013Z" style="fill:#fff;fill-rule:nonzero;"/><path d="M358.483,159.082l-11.957,9.396l3.285,4.145c3.539,-2.874 5.619,-4.579 6.239,-5.115c0.621,-0.536 1.145,-1.028 1.572,-1.475c-0.149,1.835 -0.224,4.323 -0.224,7.464l0,26.227l6.547,0l0,-40.642l-5.462,-0Z" style="fill:#fff;fill-rule:nonzero;"/><path d="M111.618,202.618c-0.579,-16.734 -20.993,-39.584 -33.191,-53.24l-0.281,-0.316l2.635,-2.604l55.519,55.484l2.801,-2.802l-55.484,-55.462l2.494,-2.459l0.286,0.251c18.969,16.914 36.884,32.905 54.342,32.905l0.975,0c16.686,-0.579 39.835,-21.296 53.68,-33.674c1.121,-1.004 2.167,-1.938 3.139,-2.801l0.747,-0.663l-1.318,-1.489l-0.746,0.659l-3.153,2.81c-12.734,11.416 -36.471,32.616 -52.415,33.169l-0.909,0c-16.685,0 -34.337,-15.75 -53.016,-32.401l-0.185,-0.162l3.618,-3.566c18.175,14.376 32.349,24.037 48.63,24.037c2.316,-0.002 4.627,-0.193 6.912,-0.571c12.905,-2.103 28.295,-10.767 47.045,-26.482l0.764,-0.641l-1.283,-1.528l-0.764,0.641c-18.464,15.482 -33.538,23.996 -46.105,26.043c-18.468,2.999 -33.573,-6.964 -53.771,-22.93l1.866,-1.84l-7.939,-2.112l1.756,6.529l-6.608,-1.756l1.646,6.147l-2.195,-0.584l-0.119,-0.118l-0.065,0.07l-3.838,-1.067l1.66,6.205l-6.275,-1.687l1.756,6.587l-6.674,-1.77l2.13,7.948l2.12,-2.086c13.648,16.769 21.244,30.737 23.185,42.663c3.148,19.32 -8.027,35.035 -25.437,56.845l-0.61,0.778l1.558,1.247l0.624,-0.782c17.739,-22.223 29.125,-38.298 25.849,-58.4c-2.603,-15.961 -14.244,-32.168 -23.711,-43.751l3.474,-3.421l0.215,0.246c12.018,13.449 32.133,35.966 32.686,51.976c0.584,16.747 -15.25,34.482 -32.006,53.253l-3.249,3.641l-0.663,0.746l1.493,1.317l0.659,-0.746l3.244,-3.64c17.024,-19.079 33.113,-37.1 32.502,-54.646Z" style="fill:#fff;fill-rule:nonzero;"/><path d="M147.233,187.381l-3.539,13.367l13.345,-3.614l-3.496,-3.478l51.098,-51.383l-2.81,-2.793l-51.098,51.379l-3.5,-3.478Z" style="fill:#fff;fill-rule:nonzero;"/><path d="M207.113,255.977l6.661,1.796l-2.129,-7.948l-2.016,1.985c-13.533,-16.624 -21.077,-30.614 -23.052,-42.684c-3.149,-19.321 8.241,-35.326 25.976,-57.544l0.624,-0.777l-1.559,-1.247l-0.619,0.781c-18.073,22.636 -29.674,38.979 -26.39,59.107c2.029,12.457 9.757,26.785 23.593,43.769l-3.412,3.355c-0.079,-0.088 -0.153,-0.176 -0.237,-0.264c-11.983,-13.423 -32.054,-35.883 -32.598,-51.91c-0.584,-16.865 15.627,-35.039 32.787,-54.281c0.969,-1.089 1.938,-2.176 2.907,-3.262l0.663,-0.747l-1.489,-1.317l-0.663,0.742l-2.902,3.263c-17.441,19.548 -33.907,38.012 -33.297,55.673c0.58,16.751 20.941,39.549 33.108,53.17l0.299,0.338l-2.767,2.727l-55.387,-55.449l-2.802,2.801l55.379,55.427l-2.459,2.411l-0.918,-0.821c-18.995,-16.954 -36.923,-32.932 -54.531,-32.357c-16.752,0.579 -39.668,21.046 -53.359,33.275l-2.92,2.603l-0.746,0.659l1.317,1.493l0.746,-0.663c0.909,-0.804 1.888,-1.677 2.929,-2.608c13.489,-12.045 36.067,-32.212 52.094,-32.766c16.822,-0.571 34.452,15.171 53.131,31.852l0.821,0.734l-3.512,3.482c-20.638,-16.339 -36.09,-26.57 -55.476,-23.413c-17.125,2.793 -34.719,16.194 -46.456,26.03l-0.778,0.628l1.283,1.528l0.764,-0.637c11.557,-9.673 28.848,-22.846 45.494,-25.582c18.53,-3.025 33.596,6.938 53.719,22.855l-2.041,2.011l7.947,2.13l-1.756,-6.534l6.586,1.757l-1.642,-6.148l6.213,1.664l-1.664,-6.2l6.279,1.682l-1.743,-6.569Z" style="fill:#fff;fill-rule:nonzero;"/><path d="M134.214,220.02l3.566,-13.358l-13.353,3.592l3.491,3.482l-49.864,49.969l2.806,2.797l49.863,-49.965l3.491,3.483Z" style="fill:#fff;fill-rule:nonzero;"/><path d="M412.07,110.237c3.513,-5.933 4.264,-11.461 2.139,-15.738l5.4,-3.117l1.032,1.796l7.505,-7.509l-10.249,2.749l1.036,1.796l-5.401,3.117c-2.775,-4.184 -8.342,-6.309 -15.763,-5.998c-4.498,0.252 -8.935,1.156 -13.173,2.683l-0,-30.276l-2.648,0l0,31.264c-2.618,1.06 -5.164,2.289 -7.623,3.68l-11.258,-19.461l1.796,-1.036l-7.504,-7.504l2.744,10.253l1.796,-1.037l11.237,19.461c-7.026,4.154 -12.949,9.362 -16.906,14.855l-24.778,-0l0,2.687l23.022,-0c-3.513,5.932 -4.264,11.46 -2.138,15.737l-14.864,8.584l0.676,1.168l14.864,-8.579c2.59,3.912 7.618,6.024 14.336,6.024c0.47,-0 0.944,-0 1.427,-0.031c4.498,-0.251 8.935,-1.155 13.173,-2.683l0,30.245l2.683,0l0,-31.255c2.618,-1.059 5.164,-2.289 7.623,-3.679l16.685,28.927l1.168,-0.676l-16.685,-28.923c7.025,-4.158 12.949,-9.362 16.905,-14.859l24.752,-0l-0,-2.665l-23.009,-0Zm-37.586,-12.554l7.231,12.554l-22.117,-0c3.693,-4.637 8.848,-8.984 14.886,-12.554Zm-19.817,29.612c-1.699,-3.604 -0.781,-8.496 2.635,-13.866c0.109,-0.176 0.232,-0.351 0.347,-0.527l21.954,-0l-24.936,14.393Zm27.268,2.978c-4.252,1.621 -8.727,2.583 -13.269,2.849c-6.359,0.264 -11.048,-1.383 -13.323,-4.654l26.592,-15.368l0,17.173Zm0,-22.394l-6.279,-10.877c2.034,-1.148 4.131,-2.183 6.279,-3.1l0,13.977Zm2.683,-15.039c4.25,-1.622 8.724,-2.583 13.265,-2.85c0.439,-0 0.878,-0.026 1.317,-0.026c5.709,-0 9.889,1.637 12.001,4.68l-26.592,15.369l0.009,-17.173Zm-0,36.366l-0,-13.972l6.279,10.876c-2.036,1.147 -4.134,2.182 -6.284,3.1l0.005,-0.004Zm7.465,-3.777l-7.237,-12.531l22.118,-0c-3.711,4.619 -8.866,8.966 -14.917,12.536l0.036,-0.005Zm17.19,-15.746l-0.351,0.527l-21.955,0l24.932,-14.393c1.664,3.613 0.786,8.501 -2.648,13.871l0.022,-0.005Z" style="fill:#fff;fill-rule:nonzero;"/><path d="M310.652,318.983l-16.866,0l0,-70.124l0.536,-0.548l-0.962,-0.949l-0.601,0.61l-69.092,0l0,-16.369l-2.683,-0l0,87.38l-7.21,0l0,2.683l6.367,-0l-0.044,0.048l0.878,0.878l0,5.876l2.683,-0l0,-6.802l86.985,-0l0.009,-2.683Zm-19.083,-69.658l0.878,0.852l0,68.806l-67.761,0l0.983,-1.001l-0.961,-0.931l-1.041,1.054l0,-68.78l67.902,-0Z" style="fill:#fff;fill-rule:nonzero;"/><path d="M235.692,305.895l-1.865,1.893l0.964,0.949l1.864,-1.893l-0.963,-0.949Z" style="fill:#fff;"/><path d="M307.089,233.413l-1.865,1.892l0.964,0.949l1.864,-1.892l-0.963,-0.949Z" style="fill:#fff;"/><path d="M265.902,275.218l-1.865,1.892l0.963,0.949l1.865,-1.892l-0.963,-0.949Z" style="fill:#fff;"/><path d="M241.183,300.297l-1.865,1.893l0.963,0.949l1.865,-1.892l-0.963,-0.95Z" style="fill:#fff;"/><path d="M263.149,278.001l-1.864,1.892l0.963,0.95l1.865,-1.893l-0.964,-0.949Z" style="fill:#fff;"/><path d="M257.662,283.577l-1.865,1.892l0.963,0.949l1.865,-1.892l-0.963,-0.949Z" style="fill:#fff;"/><path d="M260.408,280.789l-1.865,1.892l0.963,0.949l1.865,-1.892l-0.963,-0.949Z" style="fill:#fff;"/><path d="M238.436,303.109l-1.865,1.892l0.964,0.949l1.864,-1.892l-0.963,-0.949Z" style="fill:#fff;"/><path d="M298.854,241.794l-1.865,1.893l0.964,0.949l1.864,-1.893l-0.963,-0.949Z" style="fill:#fff;"/><path d="M232.947,308.656l-1.865,1.892l0.963,0.95l1.865,-1.892l-0.963,-0.95Z" style="fill:#fff;"/><path d="M304.346,236.223l-1.864,1.893l0.964,0.949l1.864,-1.893l-0.964,-0.949Z" style="fill:#fff;"/><path d="M301.602,239.014l-1.864,1.893l0.963,0.949l1.865,-1.893l-0.964,-0.949Z" style="fill:#fff;"/><path d="M219.215,322.617l-1.864,1.893l0.964,0.949l1.864,-1.893l-0.964,-0.949Z" style="fill:#fff;"/><path d="M296.104,244.563l-1.865,1.892l0.964,0.949l1.864,-1.892l-0.963,-0.949Z" style="fill:#fff;"/><path d="M216.468,325.381l-1.865,1.893l0.964,0.949l1.864,-1.892l-0.963,-0.95Z" style="fill:#fff;"/><path d="M243.932,297.507l-1.865,1.892l0.963,0.949l1.865,-1.892l-0.963,-0.949Z" style="fill:#fff;"/><path d="M252.171,289.175l-1.864,1.892l0.963,0.949l1.864,-1.892l-0.963,-0.949Z" style="fill:#fff;"/><path d="M254.912,286.387l-1.864,1.892l0.963,0.949l1.864,-1.892l-0.963,-0.949Z" style="fill:#fff;"/><path d="M268.647,272.457l-1.864,1.892l0.963,0.95l1.864,-1.893l-0.963,-0.949Z" style="fill:#fff;"/><path d="M249.423,291.939l-1.865,1.892l0.963,0.949l1.865,-1.892l-0.963,-0.949Z" style="fill:#fff;"/><path d="M227.453,314.232l-1.865,1.892l0.963,0.949l1.865,-1.892l-0.963,-0.949Z" style="fill:#fff;"/><path d="M276.879,264.071l-1.865,1.892l0.964,0.95l1.864,-1.893l-0.963,-0.949Z" style="fill:#fff;"/><path d="M271.391,269.666l-1.864,1.893l0.963,0.949l1.865,-1.893l-0.964,-0.949Z" style="fill:#fff;"/><path d="M279.628,261.28l-1.864,1.892l0.963,0.95l1.865,-1.892l-0.964,-0.95Z" style="fill:#fff;"/><path d="M290.613,250.131l-1.864,1.892l0.963,0.949l1.864,-1.892l-0.963,-0.949Z" style="fill:#fff;"/><path d="M230.199,311.444l-1.865,1.892l0.964,0.949l1.864,-1.892l-0.963,-0.949Z" style="fill:#fff;"/><path d="M287.864,252.921l-1.865,1.893l0.964,0.949l1.864,-1.892l-0.963,-0.95Z" style="fill:#fff;"/><path d="M285.126,255.732l-1.864,1.892l0.963,0.949l1.865,-1.892l-0.964,-0.949Z" style="fill:#fff;"/><path d="M282.37,258.493l-1.865,1.892l0.964,0.949l1.864,-1.892l-0.963,-0.949Z" style="fill:#fff;"/><path d="M264.837,263.736c15.368,11.812 19.667,24.33 19.711,24.458l2.547,-0.839c-0.15,-0.439 -3.074,-9.01 -12.734,-18.798l0.729,-0.737l-0.962,-0.949l-0.724,0.733c-2.254,-2.191 -4.638,-4.244 -7.14,-6.147l1.405,-2.239l-14.376,-4.44l10.253,11.039l1.291,-2.081Z" style="fill:#fff;fill-rule:nonzero;"/><path d="M251.049,303.277l-1.405,2.239l14.394,4.435l-10.249,-11.039l-1.317,2.081c-2.011,-1.55 -3.838,-3.108 -5.485,-4.654l0.642,-0.65l-0.962,-0.948l-0.659,0.667c-10.143,-9.862 -13.208,-18.767 -13.243,-18.881l-2.551,0.843c0.198,0.571 4.637,13.537 20.835,25.907Z" style="fill:#fff;fill-rule:nonzero;"/></g></svg>