{
  "accessors": [
    {
      "bufferView": 0,
      "byteOffset": 0,
      "count": 3456,
      "componentType": 5126,
      "extras": {},
      "type": "VEC3",
      "min": [
        -0.5,
        -0.5,
        0.0
      ],
      "max": [
        0.5,
        0.5,
        0.0
      ]
    },
    {
      "bufferView": 0,
      "byteOffset": 12,
      "count": 3456,
      "componentType": 5126,
      "extras": {},
      "type": "VEC3"
    }
  ],
  "asset": {
    "extras": {},
    "version": "2.0"
  },
  "buffers": [
    {
      "byteLength": 82944,
      "uri": "data:application/octet-stream;base64,",
      "extras": {}
    }
  ],
  "bufferViews": [
    {
      "buffer": 0,
      "byteLength": 82944,
      "byteStride": 24,
      "target": 34962,
      "extras": {}
    }
  ],
  "extras": {},
  "meshes": [
    {
      "extras": {},
      "primitives": [
        {
          "attributes": {
            "POSITION": 0,
            "COLOR_0": 1
          },
          "extras": {}
        }
      ]
    }
  ],
  "nodes": [
    {
      "extras": {},
      "mesh": 0
    }
  ],
  "scenes": [
    {
      "extras": {},
      "nodes": [
        0
      ]
    }
  ]
}