<?xml version="1.0" encoding="utf-8"?>
<!-- Generator: Adobe Illustrator 19.0.0, SVG Export Plug-In . SVG Version: 6.00 Build 0)  -->
<svg version="1.1" xmlns="http://www.w3.org/2000/svg" xmlns:xlink="http://www.w3.org/1999/xlink" x="0px" y="0px"
	 viewBox="0 0 1024 1024" style="enable-background:new 0 0 1024 1024;" xml:space="preserve">
<style type="text/css">
	.st0{fill:none;stroke:#666666;stroke-width:14;stroke-miterlimit:10;}
	.st1{fill:none;stroke:#666666;stroke-width:18;stroke-miterlimit:10;}
	.st2{opacity:0.67;fill:#ED1C24;}
	.st3{opacity:0.48;fill:#ED1C24;}
	.st4{fill:#FF9794;}
	.st5{font-family:'MyriadPro-Regular';}
	.st6{font-size:36px;}
	.st7{fill:#0076C2;}
	.st8{opacity:0.48;fill:#0076C2;}
	.st9{fill:#29ABE2;}
	.st10{display:none;}
	.st11{display:inline;fill:#0071BC;}
	.st12{display:inline;opacity:0.48;fill:#0076C2;}
	.st13{display:inline;fill:#29ABE2;}
	.st14{display:inline;}
	.st15{fill:#FFFFFF;}
	.st16{fill:#F4F4F4;}
	.st17{display:none;fill:none;stroke:#000000;stroke-width:60;stroke-miterlimit:10;}
	.st18{display:none;fill:none;stroke:#6CC24A;stroke-width:18;stroke-miterlimit:10;}
	.st19{fill:#E03C31;stroke:#ED1C24;stroke-width:18;stroke-miterlimit:10;}
</style>
<g id="curves">
	<path id="XMLID_4_" class="st0" d="M149.3,411.5c-84,94.3-69.6,271.7,0,329.6s196.9-20.9,267.5,6.8
		c99.6,30.6,24.9,72.9,124.5,147.3s278.2,43.8,328,14.6c49.8-29.2,88-116.7,99.6-154.6s47.1-151.7-48.4-261.1
		S636.9,310.4,490.2,310.4S233.3,317.2,149.3,411.5z"/>
	<path id="XMLID_5_" class="st0" d="M204.2,472c0,0-52.6,39.4-44.3,110.8s62.3,71.5,96.9,71.5s166.1-43.1,196.5-80.2
		c30.4-37.2,27.7-93.3,6.9-121.1s-92.7-39.4-150.1-30.6S204.2,472,204.2,472z"/>
	<path id="XMLID_6_" class="st0" d="M873.1,546.1c-41.5-71.5-95.5-80.2-181.3-61.3s-155,60.6-171.6,141.2
		c-16.6,80.5,26.5,147.5,56.2,189.9C606,858.3,725,859.7,774.8,848c49.8-11.7,146.7-112.3,153.6-181.6S914.6,617.6,873.1,546.1z"/>
	<path id="XMLID_7_" class="st0" d="M591.6,723.1c0-16.3,14.5-37.8,62-44.9c47.5-7.1,95.9,8.2,95.9,44.9s-34.9,89.8-86.2,89.8
		S591.6,750.6,591.6,723.1z"/>
	<path id="XMLID_2_" class="st1" d="M848.3,326.8"/>
	<path id="XMLID_11_" class="st0" d="M106.1,241c-18.9,30.4-16,74.9,9.3,89.3c27.2,15.5,40.5-60.4,177.4-102.8
		c225.4-69.8,398.2,60.9,420.8-52.2C739.5,45.4,482.4,31,323.2,93.5C211.6,137.3,127.1,207.1,106.1,241z"/>
</g>
<g id="crater">
	<path id="XMLID_12_" class="st2" d="M715.4,751c0,18.8-16.2,34-44.4,34s-45-15.2-45-34s16.8-34,45-34S715.4,732.2,715.4,751z"/>
	<path id="XMLID_15_" class="st3" d="M752.1,751c0,34.2-29.6,61.9-80.9,61.9c-51.3,0-82-27.7-82-61.9s30.7-61.9,82-61.9
		C722.5,689.1,752.1,716.8,752.1,751z"/>
	<text id="XMLID_16_" transform="matrix(1 0 0 1 656.5205 762.7484)" class="st4 st5 st6">C</text>
</g>
<g id="turbine_1">
	<ellipse id="XMLID_17_" class="st7" cx="852.8" cy="680" rx="34.2" ry="36"/>
	<ellipse id="XMLID_19_" class="st8" cx="852.8" cy="680" rx="60.2" ry="63.3"/>
	<text id="XMLID_18_" transform="matrix(1 0 0 1 843.7584 693.5408)" class="st9 st5 st6">T</text>
</g>
<g id="turbine_2" class="st10">
	<ellipse id="XMLID_42_" class="st11" cx="777.8" cy="575" rx="34.2" ry="36"/>
	<ellipse id="XMLID_41_" class="st12" cx="777.8" cy="575" rx="60.2" ry="63.3"/>
	<text id="XMLID_40_" transform="matrix(1 0 0 1 769.9254 589.7078)" class="st13 st5 st6">T</text>
</g>
<g id="click_turbine_1" class="st10">
	<g id="XMLID_10_" class="st14">
		<path id="XMLID_3_" class="st15" d="M834,809.3c-6.8-7.3-13.7-14.6-20.5-21.9c-4.5-4.8-9.1-9.9-10.4-16.3s2.6-14.3,9.1-14.8
			c8.7-0.7,14.6,11.2,23.3,10.4c1.1-6.8,5.1-12.5,4.7-19.4c-0.7-12-2.6-24.8-1.5-36.8c0.6-6.9,0.3-14,1.3-20.9
			c0.9-6.9,3.3-13.9,8.4-18.7c2.1-2,5.1-3.6,7.8-2.6c2.7,0.9,4,3.9,4.7,6.7c3.4,12.9,0.3,26.6,2.4,39.7c0.1,0.9,0.3,1.8,0.8,2.5
			c0.7,0.9,1.8,1.3,2.9,1.7c21.1,7.4,42,15.4,62.7,23.9c1.9,0.8,3.8,1.6,5.2,3c1.7,1.7,2.4,4.1,3.1,6.4c2,6.7,3.6,13.5,4.3,20.5
			c1.2,13.2-1.4,26.5-5.2,39.2c-2.3,7.7-5.1,15.4-10.2,21.6c-7.3,9-18.6,13.9-29.8,16.6c1.4-0.4,2.8-0.8,4.2-1.3
			c-11,4.1-23.1,3.6-34.8,3.1c-2.2-0.1-4.6-0.2-6.5-1.3c-1.5-0.9-2.7-2.3-3.7-3.7c-8-11.4-10.7-26.5-20.8-36.2"/>
		<path id="XMLID_160_" d="M872.3,714.7c0.7-0.2,1.4-0.3,2.1-0.5c8-2,15.8,1.3,20,8.3c0.4,0.7,0.9,1.5,1.3,2.4
			c0.4-0.1,0.9-0.1,1.2-0.2c7.7-3.1,17.7-0.2,23.2,7.8c0.6,0.9,1.3,1.9,1.9,2.9c0.6-0.2,1-0.4,1.5-0.6c5.8-2.7,13.8-2,19.5,3.6
			c4.1,4.1,6,9.2,6.1,14.9c0.2,10.5,0.4,20.9,0.6,31.4c0,2.8,0,5.7-0.1,8.5c-0.5,9-1.9,17.8-4.8,26.3c-3.3,9.6-8.4,18.2-15.9,25.2
			c-5.6,5.2-11.9,9.2-19,12.1c-9.1,3.7-18.6,5.7-28.3,6.5c-4.9,0.4-9.8,0.1-14.7-1.2c-7.9-2.1-14.2-6.5-19-13
			c-2.5-3.4-4.6-7.1-6.1-11.1c-2.5-6.9-6.2-13.1-10.6-19c-4.3-5.8-9.1-11.3-13.9-16.7c-4.3-4.9-8.6-9.8-12.6-15
			c-2.9-3.8-5.3-8-7-12.5c-1.3-3.4-2.1-7-1.9-10.7c0.3-5.8,2.8-10.5,7.6-13.8c2.8-1.9,5.9-2.9,9.3-3.4c4.1-0.6,7.9,0.1,11.5,2.2
			c3.2,1.9,6.2,4,9.2,6.3c0.9,0.6,1.7,1.4,2.8,2c0.1-0.5,0.3-0.8,0.3-1.1c0-0.8,0-1.6,0-2.4c-0.5-24.2-0.9-48.4-1.4-72.6
			c0-1.5,0-2.9,0.2-4.4c0.7-4.9,3.1-8.7,7.2-11.4c5.9-3.9,12.3-4.6,18.8-1.8c5.3,2.3,8.5,6.5,9.5,12.1c0.3,1.4,0.3,2.9,0.4,4.3
			c0.2,10.7,0.4,21.4,0.6,32.1C872,713,871.9,713.8,872.3,714.7z M848.2,779c-0.7-0.3-1-0.4-1.3-0.6c-2.9-1.9-5.8-3.6-8.5-5.6
			c-4.1-2.9-8.2-6-12.2-9.1c-2.3-1.7-4.6-3.5-6.9-5.3c-0.5-0.4-0.9-0.7-1.6-0.7c-1.6,0.2-3.2,0.2-4.7,0.5c-4.1,1-6,3.8-5.6,8
			c0.2,2,0.7,3.9,1.5,5.7c1.4,3.3,3.2,6.4,5.5,9.1c4.2,5,8.4,10,12.6,15c5.3,6.1,10.6,12.1,15.2,18.8c3.9,5.6,7.3,11.5,9.8,17.9
			c0.7,1.8,1.5,3.5,2.3,5.2c1.7,3.3,3.9,6.3,6.7,8.7c4.2,3.5,9.1,5.2,14.6,5.6c3.7,0.2,7.4-0.1,11-0.7c7-1.1,13.8-2.7,20.3-5.5
			c11.1-4.8,19.5-12.6,24.8-23.6c3.2-6.7,5-13.8,6-21.1c0.8-6.1,1.1-12.1,0.9-18.3c-0.3-9.8-0.4-19.6-0.5-29.4
			c0-1.9-0.4-3.8-1.4-5.4c-1.5-2.4-3.5-3.8-6.4-3.7c-2.8,0.1-6.5,3.6-5.8,6.5c0.1,7.3,0.3,14.5,0.4,21.8c0,0.7,0,1.3,0,2
			c-0.3,2.9-2.6,5.1-5.5,5.2c-2.9,0-5.2-2.1-5.6-5c-0.1-0.6-0.1-1.2-0.1-1.7c-0.2-8.9-0.3-17.7-0.5-26.6c0-2-0.3-3.9-1.1-5.7
			c-1.3-3-3.5-5-6.6-5.8c-2.2-0.6-4.3-0.3-6.1,1.3c-1.3,1.2-2,2.8-1.9,4.7c0.2,7.4,0.3,14.8,0.4,22.2c0,0.7,0,1.5,0,2.2
			c-0.3,2.9-2.7,5-5.6,5c-2.8,0-5.1-2.1-5.4-5c-0.1-0.7-0.1-1.5-0.1-2.2c-0.2-10.1-0.4-20.2-0.6-30.3c0-2-0.6-3.7-1.8-5.3
			c-1.8-2.4-4.7-3.3-7.5-2.5c-2.7,0.8-4.3,3-4.5,6c0,0.7,0,1.3,0,2c0.1,6.8,0.3,13.5,0.4,20.3c0,0.7,0,1.3,0,2
			c-0.2,3.1-2.5,5.4-5.5,5.4c-3,0-5.4-2.1-5.6-5.2c-0.1-0.8-0.1-1.6-0.1-2.4c-0.5-23.7-0.9-47.4-1.4-71.1c0-0.9,0-1.8-0.1-2.6
			c-0.1-0.9-0.2-1.7-0.5-2.5c-0.6-1.7-1.8-2.8-3.5-3.3c-1.8-0.5-3.6-0.5-5.3,0.2c-2.7,0.9-4.2,2.8-4.4,5.6c-0.1,0.9,0,1.9,0,2.8
			c0.6,31.2,1.2,62.4,1.8,93.5C848.2,776.7,848.2,777.6,848.2,779z"/>
		<path id="XMLID_153_" d="M849.4,637.6c-0.1-2.7-0.1-5.4-0.2-8.1c0-0.9,0-1.7,0.5-2.5c0.8-1.4,2-2.1,3.6-2c1.5,0.1,2.9,1.2,3.4,2.7
			c0.2,0.6,0.2,1.3,0.2,1.9c0.1,5.4,0.2,10.9,0.3,16.3c0,0.4,0,0.9,0,1.3c-0.3,2-1.7,3.3-3.7,3.4c-1.9,0.1-3.5-1.3-3.8-3.2
			c-0.1-0.6-0.1-1.2-0.1-1.7C849.5,643,849.5,640.3,849.4,637.6z"/>
		<path id="XMLID_152_" d="M900.8,687.5c-2.6,0-5.2,0.1-7.8,0.1c-0.6,0-1.2,0-1.7-0.1c-1.9-0.3-3.3-1.9-3.2-3.8
			c0-1.8,1.3-3.3,3.1-3.7c0.6-0.1,1.2-0.1,1.7-0.1c5.3-0.1,10.6-0.2,15.8-0.3c0.5,0,1,0,1.5,0c1.9,0.3,3.3,1.8,3.3,3.7
			c0,1.8-1.3,3.5-3.2,3.8c-0.6,0.1-1.2,0.1-1.7,0.1C906,687.4,903.4,687.5,900.8,687.5z"/>
		<path id="XMLID_151_" d="M807.4,689.3c-2.6,0-5.2,0.1-7.8,0.1c-0.5,0-1,0-1.5,0c-1.9-0.3-3.4-1.8-3.4-3.7
			c-0.1-1.8,1.3-3.5,3.2-3.8c0.6-0.1,1.2-0.1,1.7-0.1c5.2-0.1,10.4-0.2,15.6-0.3c0.6,0,1.2,0,1.7,0c1.9,0.3,3.2,1.7,3.3,3.5
			c0.1,1.9-1.1,3.5-3,3.9c-0.6,0.1-1.1,0.1-1.7,0.1C812.8,689.2,810.1,689.3,807.4,689.3z"/>
		<path id="XMLID_150_" d="M813.9,642.1c0.8,0,1.6,0.2,2.2,0.7c0.4,0.3,0.8,0.7,1.1,1c3.9,3.7,7.7,7.4,11.6,11.2
			c0.4,0.4,0.7,0.7,1,1.1c1.2,1.5,1,3.7-0.3,5c-1.3,1.3-3.4,1.5-5,0.4c-0.4-0.3-0.8-0.7-1.1-1c-3.8-3.6-7.5-7.2-11.2-10.9
			c-0.6-0.6-1.3-1.2-1.6-2C809.4,645,811.2,642.1,813.9,642.1z"/>
		<path id="XMLID_149_" d="M880.4,661.1c-1.5,0-2.6-0.6-3.3-1.8c-0.8-1.3-0.7-2.6,0-3.9c0.3-0.4,0.6-0.8,1-1.2
			c3.9-4,7.7-8.1,11.6-12.1c0.8-0.9,1.7-1.5,3-1.6c1.5,0,2.7,0.6,3.4,1.9c0.7,1.2,0.7,2.5,0,3.7c-0.3,0.5-0.7,0.9-1.1,1.4
			c-3.8,3.9-7.5,7.8-11.3,11.8c-0.3,0.3-0.6,0.6-0.9,0.9C882,660.8,881.2,661.1,880.4,661.1z"/>
	</g>
</g>
<g id="click_too_close_to_crater">
	<g id="XMLID_20_">
		<path id="XMLID_29_" class="st15" d="M717,896.3c-6.8-7.3-13.7-14.6-20.5-21.9c-4.5-4.8-9.1-9.9-10.4-16.3s2.6-14.3,9.1-14.8
			c8.7-0.7,14.6,11.2,23.3,10.4c1.1-6.8,5.1-12.5,4.7-19.4c-0.7-12-2.6-24.8-1.5-36.8c0.6-6.9,0.3-14,1.3-20.9
			c0.9-6.9,3.3-13.9,8.4-18.7c2.1-2,5.1-3.6,7.8-2.6c2.7,0.9,4,3.9,4.7,6.7c3.4,12.9,0.3,26.6,2.4,39.7c0.1,0.9,0.3,1.8,0.8,2.5
			c0.7,0.9,1.8,1.3,2.9,1.7c21.1,7.4,42,15.4,62.7,23.9c1.9,0.8,3.8,1.6,5.2,3c1.7,1.7,2.4,4.1,3.1,6.4c2,6.7,3.6,13.5,4.3,20.5
			c1.2,13.2-1.4,26.5-5.2,39.2c-2.3,7.7-5.1,15.4-10.2,21.6c-7.3,9-18.6,13.9-29.8,16.6c1.4-0.4,2.8-0.8,4.2-1.3
			c-11,4.1-23.1,3.6-34.8,3.1c-2.2-0.1-4.6-0.2-6.5-1.3c-1.5-0.9-2.7-2.3-3.7-3.7c-8-11.4-10.7-26.5-20.8-36.2"/>
		<path id="XMLID_26_" d="M755.3,801.7c0.7-0.2,1.4-0.3,2.1-0.5c8-2,15.8,1.3,20,8.3c0.4,0.7,0.9,1.5,1.3,2.4
			c0.4-0.1,0.9-0.1,1.2-0.2c7.7-3.1,17.7-0.2,23.2,7.8c0.6,0.9,1.3,1.9,1.9,2.9c0.6-0.2,1-0.4,1.5-0.6c5.8-2.7,13.8-2,19.5,3.6
			c4.1,4.1,6,9.2,6.1,14.9c0.2,10.5,0.4,20.9,0.6,31.4c0,2.8,0,5.7-0.1,8.5c-0.5,9-1.9,17.8-4.8,26.3c-3.3,9.6-8.4,18.2-15.9,25.2
			c-5.6,5.2-11.9,9.2-19,12.1c-9.1,3.7-18.6,5.7-28.3,6.5c-4.9,0.4-9.8,0.1-14.7-1.2c-7.9-2.1-14.2-6.5-19-13
			c-2.5-3.4-4.6-7.1-6.1-11.1c-2.5-6.9-6.2-13.1-10.6-19c-4.3-5.8-9.1-11.3-13.9-16.7c-4.3-4.9-8.6-9.8-12.6-15
			c-2.9-3.8-5.3-8-7-12.5c-1.3-3.4-2.1-7-1.9-10.7c0.3-5.8,2.8-10.5,7.6-13.8c2.8-1.9,5.9-2.9,9.3-3.4c4.1-0.6,7.9,0.1,11.5,2.2
			c3.2,1.9,6.2,4,9.2,6.3c0.9,0.6,1.7,1.4,2.8,2c0.1-0.5,0.3-0.8,0.3-1.1c0-0.8,0-1.6,0-2.4c-0.5-24.2-0.9-48.4-1.4-72.6
			c0-1.5,0-2.9,0.2-4.4c0.7-4.9,3.1-8.7,7.2-11.4c5.9-3.9,12.3-4.6,18.8-1.8c5.3,2.3,8.5,6.5,9.5,12.1c0.3,1.4,0.3,2.9,0.4,4.3
			c0.2,10.7,0.4,21.4,0.6,32.1C755,800,754.9,800.8,755.3,801.7z M731.2,866c-0.7-0.3-1-0.4-1.3-0.6c-2.9-1.9-5.8-3.6-8.5-5.6
			c-4.1-2.9-8.2-6-12.2-9.1c-2.3-1.7-4.6-3.5-6.9-5.3c-0.5-0.4-0.9-0.7-1.6-0.7c-1.6,0.2-3.2,0.2-4.7,0.5c-4.1,1-6,3.8-5.6,8
			c0.2,2,0.7,3.9,1.5,5.7c1.4,3.3,3.2,6.4,5.5,9.1c4.2,5,8.4,10,12.6,15c5.3,6.1,10.6,12.1,15.2,18.8c3.9,5.6,7.3,11.5,9.8,17.9
			c0.7,1.8,1.5,3.5,2.3,5.2c1.7,3.3,3.9,6.3,6.7,8.7c4.2,3.5,9.1,5.2,14.6,5.6c3.7,0.2,7.4-0.1,11-0.7c7-1.1,13.8-2.7,20.3-5.5
			c11.1-4.8,19.5-12.6,24.8-23.6c3.2-6.7,5-13.8,6-21.1c0.8-6.1,1.1-12.1,0.9-18.3c-0.3-9.8-0.4-19.6-0.5-29.4
			c0-1.9-0.4-3.8-1.4-5.4c-1.5-2.4-3.5-3.8-6.4-3.7c-2.8,0.1-6.5,3.6-5.8,6.5c0.1,7.3,0.3,14.5,0.4,21.8c0,0.7,0,1.3,0,2
			c-0.3,2.9-2.6,5.1-5.5,5.2c-2.9,0-5.2-2.1-5.6-5c-0.1-0.6-0.1-1.2-0.1-1.7c-0.2-8.9-0.3-17.7-0.5-26.6c0-2-0.3-3.9-1.1-5.7
			c-1.3-3-3.5-5-6.6-5.8c-2.2-0.6-4.3-0.3-6.1,1.3c-1.3,1.2-2,2.8-1.9,4.7c0.2,7.4,0.3,14.8,0.4,22.2c0,0.7,0,1.5,0,2.2
			c-0.3,2.9-2.7,5-5.6,5c-2.8,0-5.1-2.1-5.4-5c-0.1-0.7-0.1-1.5-0.1-2.2c-0.2-10.1-0.4-20.2-0.6-30.3c0-2-0.6-3.7-1.8-5.3
			c-1.8-2.4-4.7-3.3-7.5-2.5c-2.7,0.8-4.3,3-4.5,6c0,0.7,0,1.3,0,2c0.1,6.8,0.3,13.5,0.4,20.3c0,0.7,0,1.3,0,2
			c-0.2,3.1-2.5,5.4-5.5,5.4c-3,0-5.4-2.1-5.6-5.2c-0.1-0.8-0.1-1.6-0.1-2.4c-0.5-23.7-0.9-47.4-1.4-71.1c0-0.9,0-1.8-0.1-2.6
			c-0.1-0.9-0.2-1.7-0.5-2.5c-0.6-1.7-1.8-2.8-3.5-3.3c-1.8-0.5-3.6-0.5-5.3,0.2c-2.7,0.9-4.2,2.8-4.4,5.6c-0.1,0.9,0,1.9,0,2.8
			c0.6,31.2,1.2,62.4,1.8,93.5C731.2,863.7,731.2,864.6,731.2,866z"/>
		<path id="XMLID_25_" d="M732.4,724.6c-0.1-2.7-0.1-5.4-0.2-8.1c0-0.9,0-1.7,0.5-2.5c0.8-1.4,2-2.1,3.6-2c1.5,0.1,2.9,1.2,3.4,2.7
			c0.2,0.6,0.2,1.3,0.2,1.9c0.1,5.4,0.2,10.9,0.3,16.3c0,0.4,0,0.9,0,1.3c-0.3,2-1.7,3.3-3.7,3.4c-1.9,0.1-3.5-1.3-3.8-3.2
			c-0.1-0.6-0.1-1.2-0.1-1.7C732.5,730,732.5,727.3,732.4,724.6z"/>
		<path id="XMLID_24_" d="M783.8,774.5c-2.6,0-5.2,0.1-7.8,0.1c-0.6,0-1.2,0-1.7-0.1c-1.9-0.3-3.3-1.9-3.2-3.8
			c0-1.8,1.3-3.3,3.1-3.7c0.6-0.1,1.2-0.1,1.7-0.1c5.3-0.1,10.6-0.2,15.8-0.3c0.5,0,1,0,1.5,0c1.9,0.3,3.3,1.8,3.3,3.7
			c0,1.8-1.3,3.5-3.2,3.8c-0.6,0.1-1.2,0.1-1.7,0.1C789,774.4,786.4,774.5,783.8,774.5z"/>
		<path id="XMLID_23_" d="M690.4,776.3c-2.6,0-5.2,0.1-7.8,0.1c-0.5,0-1,0-1.5,0c-1.9-0.3-3.4-1.8-3.4-3.7c-0.1-1.8,1.3-3.5,3.2-3.8
			c0.6-0.1,1.2-0.1,1.7-0.1c5.2-0.1,10.4-0.2,15.6-0.3c0.6,0,1.2,0,1.7,0c1.9,0.3,3.2,1.7,3.3,3.5c0.1,1.9-1.1,3.5-3,3.9
			c-0.6,0.1-1.1,0.1-1.7,0.1C695.8,776.2,693.1,776.3,690.4,776.3z"/>
		<path id="XMLID_22_" d="M696.9,729.1c0.8,0,1.6,0.2,2.2,0.7c0.4,0.3,0.8,0.7,1.1,1c3.9,3.7,7.7,7.4,11.6,11.2
			c0.4,0.4,0.7,0.7,1,1.1c1.2,1.5,1,3.7-0.3,5c-1.3,1.3-3.4,1.5-5,0.4c-0.4-0.3-0.8-0.7-1.1-1c-3.8-3.6-7.5-7.2-11.2-10.9
			c-0.6-0.6-1.3-1.2-1.6-2C692.4,732,694.2,729.1,696.9,729.1z"/>
		<path id="XMLID_21_" d="M763.4,748.1c-1.5,0-2.6-0.6-3.3-1.8c-0.8-1.3-0.7-2.6,0-3.9c0.3-0.4,0.6-0.8,1-1.2
			c3.9-4,7.7-8.1,11.6-12.1c0.8-0.9,1.7-1.5,3-1.6c1.5,0,2.7,0.6,3.4,1.9c0.7,1.2,0.7,2.5,0,3.7c-0.3,0.5-0.7,0.9-1.1,1.4
			c-3.8,3.9-7.5,7.8-11.3,11.8c-0.3,0.3-0.6,0.6-0.9,0.9C765,747.8,764.2,748.1,763.4,748.1z"/>
	</g>
</g>
<g id="clcik_too_close_to_turbine_2" class="st10">
	<g id="XMLID_30_" class="st14">
		<path id="XMLID_39_" class="st15" d="M778,759.3c-6.8-7.3-13.7-14.6-20.5-21.9c-4.5-4.8-9.1-9.9-10.4-16.3s2.6-14.3,9.1-14.8
			c8.7-0.7,14.6,11.2,23.3,10.4c1.1-6.8,5.1-12.5,4.7-19.4c-0.7-12-2.6-24.8-1.5-36.8c0.6-6.9,0.3-14,1.3-20.9
			c0.9-6.9,3.3-13.9,8.4-18.7c2.1-2,5.1-3.6,7.8-2.6c2.7,0.9,4,3.9,4.7,6.7c3.4,12.9,0.3,26.6,2.4,39.7c0.1,0.9,0.3,1.8,0.8,2.5
			c0.7,0.9,1.8,1.3,2.9,1.7c21.1,7.4,42,15.4,62.7,23.9c1.9,0.8,3.8,1.6,5.2,3c1.7,1.7,2.4,4.1,3.1,6.4c2,6.7,3.6,13.5,4.3,20.5
			c1.2,13.2-1.4,26.5-5.2,39.2c-2.3,7.7-5.1,15.4-10.2,21.6c-7.3,9-18.6,13.9-29.8,16.6c1.4-0.4,2.8-0.8,4.2-1.3
			c-11,4.1-23.1,3.6-34.8,3.1c-2.2-0.1-4.6-0.2-6.5-1.3c-1.5-0.9-2.7-2.3-3.7-3.7c-8-11.4-10.7-26.5-20.8-36.2"/>
		<path id="XMLID_36_" d="M816.3,664.7c0.7-0.2,1.4-0.3,2.1-0.5c8-2,15.8,1.3,20,8.3c0.4,0.7,0.9,1.5,1.3,2.4
			c0.4-0.1,0.9-0.1,1.2-0.2c7.7-3.1,17.7-0.2,23.2,7.8c0.6,0.9,1.3,1.9,1.9,2.9c0.6-0.2,1-0.4,1.5-0.6c5.8-2.7,13.8-2,19.5,3.6
			c4.1,4.1,6,9.2,6.1,14.9c0.2,10.5,0.4,20.9,0.6,31.4c0,2.8,0,5.7-0.1,8.5c-0.5,9-1.9,17.8-4.8,26.3c-3.3,9.6-8.4,18.2-15.9,25.2
			c-5.6,5.2-11.9,9.2-19,12.1c-9.1,3.7-18.6,5.7-28.3,6.5c-4.9,0.4-9.8,0.1-14.7-1.2c-7.9-2.1-14.2-6.5-19-13
			c-2.5-3.4-4.6-7.1-6.1-11.1c-2.5-6.9-6.2-13.1-10.6-19c-4.3-5.8-9.1-11.3-13.9-16.7c-4.3-4.9-8.6-9.8-12.6-15
			c-2.9-3.8-5.3-8-7-12.5c-1.3-3.4-2.1-7-1.9-10.7c0.3-5.8,2.8-10.5,7.6-13.8c2.8-1.9,5.9-2.9,9.3-3.4c4.1-0.6,7.9,0.1,11.5,2.2
			c3.2,1.9,6.2,4,9.2,6.3c0.9,0.6,1.7,1.4,2.8,2c0.1-0.5,0.3-0.8,0.3-1.1c0-0.8,0-1.6,0-2.4c-0.5-24.2-0.9-48.4-1.4-72.6
			c0-1.5,0-2.9,0.2-4.4c0.7-4.9,3.1-8.7,7.2-11.4c5.9-3.9,12.3-4.6,18.8-1.8c5.3,2.3,8.5,6.5,9.5,12.1c0.3,1.4,0.3,2.9,0.4,4.3
			c0.2,10.7,0.4,21.4,0.6,32.1C816,663,815.9,663.8,816.3,664.7z M792.2,729c-0.7-0.3-1-0.4-1.3-0.6c-2.9-1.9-5.8-3.6-8.5-5.6
			c-4.1-2.9-8.2-6-12.2-9.1c-2.3-1.7-4.6-3.5-6.9-5.3c-0.5-0.4-0.9-0.7-1.6-0.7c-1.6,0.2-3.2,0.2-4.7,0.5c-4.1,1-6,3.8-5.6,8
			c0.2,2,0.7,3.9,1.5,5.7c1.4,3.3,3.2,6.4,5.5,9.1c4.2,5,8.4,10,12.6,15c5.3,6.1,10.6,12.1,15.2,18.8c3.9,5.6,7.3,11.5,9.8,17.9
			c0.7,1.8,1.5,3.5,2.3,5.2c1.7,3.3,3.9,6.3,6.7,8.7c4.2,3.5,9.1,5.2,14.6,5.6c3.7,0.2,7.4-0.1,11-0.7c7-1.1,13.8-2.7,20.3-5.5
			c11.1-4.8,19.5-12.6,24.8-23.6c3.2-6.7,5-13.8,6-21.1c0.8-6.1,1.1-12.1,0.9-18.3c-0.3-9.8-0.4-19.6-0.5-29.4
			c0-1.9-0.4-3.8-1.4-5.4c-1.5-2.4-3.5-3.8-6.4-3.7c-2.8,0.1-6.5,3.6-5.8,6.5c0.1,7.3,0.3,14.5,0.4,21.8c0,0.7,0,1.3,0,2
			c-0.3,2.9-2.6,5.1-5.5,5.2c-2.9,0-5.2-2.1-5.6-5c-0.1-0.6-0.1-1.2-0.1-1.7c-0.2-8.9-0.3-17.7-0.5-26.6c0-2-0.3-3.9-1.1-5.7
			c-1.3-3-3.5-5-6.6-5.8c-2.2-0.6-4.3-0.3-6.1,1.3c-1.3,1.2-2,2.8-1.9,4.7c0.2,7.4,0.3,14.8,0.4,22.2c0,0.7,0,1.5,0,2.2
			c-0.3,2.9-2.7,5-5.6,5c-2.8,0-5.1-2.1-5.4-5c-0.1-0.7-0.1-1.5-0.1-2.2c-0.2-10.1-0.4-20.2-0.6-30.3c0-2-0.6-3.7-1.8-5.3
			c-1.8-2.4-4.7-3.3-7.5-2.5c-2.7,0.8-4.3,3-4.5,6c0,0.7,0,1.3,0,2c0.1,6.8,0.3,13.5,0.4,20.3c0,0.7,0,1.3,0,2
			c-0.2,3.1-2.5,5.4-5.5,5.4c-3,0-5.4-2.1-5.6-5.2c-0.1-0.8-0.1-1.6-0.1-2.4c-0.5-23.7-0.9-47.4-1.4-71.1c0-0.9,0-1.8-0.1-2.6
			c-0.1-0.9-0.2-1.7-0.5-2.5c-0.6-1.7-1.8-2.8-3.5-3.3c-1.8-0.5-3.6-0.5-5.3,0.2c-2.7,0.9-4.2,2.8-4.4,5.6c-0.1,0.9,0,1.9,0,2.8
			c0.6,31.2,1.2,62.4,1.8,93.5C792.2,726.7,792.2,727.6,792.2,729z"/>
		<path id="XMLID_35_" d="M793.4,587.6c-0.1-2.7-0.1-5.4-0.2-8.1c0-0.9,0-1.7,0.5-2.5c0.8-1.4,2-2.1,3.6-2c1.5,0.1,2.9,1.2,3.4,2.7
			c0.2,0.6,0.2,1.3,0.2,1.9c0.1,5.4,0.2,10.9,0.3,16.3c0,0.4,0,0.9,0,1.3c-0.3,2-1.7,3.3-3.7,3.4c-1.9,0.1-3.5-1.3-3.8-3.2
			c-0.1-0.6-0.1-1.2-0.1-1.7C793.5,593,793.5,590.3,793.4,587.6z"/>
		<path id="XMLID_34_" d="M844.8,637.5c-2.6,0-5.2,0.1-7.8,0.1c-0.6,0-1.2,0-1.7-0.1c-1.9-0.3-3.3-1.9-3.2-3.8
			c0-1.8,1.3-3.3,3.1-3.7c0.6-0.1,1.2-0.1,1.7-0.1c5.3-0.1,10.6-0.2,15.8-0.3c0.5,0,1,0,1.5,0c1.9,0.3,3.3,1.8,3.3,3.7
			c0,1.8-1.3,3.5-3.2,3.8c-0.6,0.1-1.2,0.1-1.7,0.1C850,637.4,847.4,637.5,844.8,637.5z"/>
		<path id="XMLID_33_" d="M751.4,639.3c-2.6,0-5.2,0.1-7.8,0.1c-0.5,0-1,0-1.5,0c-1.9-0.3-3.4-1.8-3.4-3.7c-0.1-1.8,1.3-3.5,3.2-3.8
			c0.6-0.1,1.2-0.1,1.7-0.1c5.2-0.1,10.4-0.2,15.6-0.3c0.6,0,1.2,0,1.7,0c1.9,0.3,3.2,1.7,3.3,3.5c0.1,1.9-1.1,3.5-3,3.9
			c-0.6,0.1-1.1,0.1-1.7,0.1C756.8,639.2,754.1,639.3,751.4,639.3z"/>
		<path id="XMLID_32_" d="M757.9,592.1c0.8,0,1.6,0.2,2.2,0.7c0.4,0.3,0.8,0.7,1.1,1c3.9,3.7,7.7,7.4,11.6,11.2
			c0.4,0.4,0.7,0.7,1,1.1c1.2,1.5,1,3.7-0.3,5c-1.3,1.3-3.4,1.5-5,0.4c-0.4-0.3-0.8-0.7-1.1-1c-3.8-3.6-7.5-7.2-11.2-10.9
			c-0.6-0.6-1.3-1.2-1.6-2C753.4,595,755.2,592.1,757.9,592.1z"/>
		<path id="XMLID_31_" d="M824.4,611.1c-1.5,0-2.6-0.6-3.3-1.8c-0.8-1.3-0.7-2.6,0-3.9c0.3-0.4,0.6-0.8,1-1.2
			c3.9-4,7.7-8.1,11.6-12.1c0.8-0.9,1.7-1.5,3-1.6c1.5,0,2.7,0.6,3.4,1.9c0.7,1.2,0.7,2.5,0,3.7c-0.3,0.5-0.7,0.9-1.1,1.4
			c-3.8,3.9-7.5,7.8-11.3,11.8c-0.3,0.3-0.6,0.6-0.9,0.9C826,610.8,825.2,611.1,824.4,611.1z"/>
	</g>
</g>
<g id="diameters" class="st10">
	<g id="XMLID_44_" class="st14">
		<g id="XMLID_62_">
			<polygon id="XMLID_63_" class="st15" points="825.6,716.3 827.1,729.2 837.9,721.9 834.3,720.3 841.2,705.2 836.1,702.8 
				829.2,717.9 			"/>
		</g>
	</g>
	<g id="XMLID_45_" class="st14">
		<g id="XMLID_56_">
			<polygon id="XMLID_60_" class="st16" points="722.2,725.7 725.1,712.3 712.1,716.8 715.1,719.4 703.2,732.7 707.4,736.4 
				719.3,723.1 			"/>
		</g>
	</g>
</g>
<g id="symbol">
	<rect id="XMLID_8_" x="754.5" y="0" class="st17" width="237" height="250"/>
	<polyline id="XMLID_43_" class="st18" points="796.9,126.2 866.5,190 982.6,62.8 	"/>
	<g id="XMLID_14_">
		<polyline id="XMLID_13_" class="st19" points="944.6,51.5 873,125.8 801.3,200 		"/>
		<polyline id="XMLID_9_" class="st19" points="801.3,51.5 873,125.8 944.6,200 		"/>
	</g>
</g>
</svg>
